<svg width="221" height="60" viewBox="0 0 221 60" fill="none" xmlns="http://www.w3.org/2000/svg">
<path fill-rule="evenodd" clip-rule="evenodd" d="M64.9795 44.3552V17.1725H68.4744L85.0861 39.0481V17.1725H88.4084V44.3552H84.9135L68.3019 22.2639V44.3552H64.9795ZM115.462 43.2765C113.261 44.0963 110.888 44.5278 108.385 44.5278C98.548 44.5278 93.6292 39.8248 93.6292 30.3756C93.6292 21.4441 98.3754 16.9568 107.868 16.9568C110.586 16.9568 113.132 17.3451 115.462 18.0786V21.0989C113.132 20.1928 110.715 19.7614 108.256 19.7614C100.835 19.7614 97.1241 23.2994 97.1241 30.2893C97.1241 37.84 100.792 41.5938 108.083 41.5938C109.248 41.5938 110.543 41.4212 111.967 41.1192V32.0151H115.462V43.2765V43.2765ZM121.071 33.8705V17.1725H124.566V33.8705C124.566 39.0913 127.154 41.7232 132.375 41.7232C137.553 41.7232 140.185 39.0913 140.185 33.8705V17.1725H143.68V33.8705C143.68 40.9897 139.926 44.571 132.375 44.571C124.825 44.571 121.071 40.9897 121.071 33.8705V33.8705ZM153.431 17.1725V41.5075H167.67V44.3552H149.936V17.1725H153.431V17.1725ZM172.718 44.3552H169.05L182.555 13.5913L196.06 44.3552H192.177L188.682 35.8121H179.708L180.657 32.9644H187.517L182.426 20.6675L172.718 44.3552V44.3552ZM199.814 44.3552V17.1725H211.421C216.598 17.1725 219.187 19.3299 219.187 23.6878C219.187 27.2258 216.642 29.8578 211.593 31.5405L220.913 44.3552H216.296L207.667 32.1446V29.8578C212.845 29.038 215.477 27.0532 215.477 23.8603C215.477 21.3578 214.053 20.1065 211.162 20.1065H203.395V44.3552H199.814V44.3552Z" fill="#B52E31"/>
<path fill-rule="evenodd" clip-rule="evenodd" d="M0 9.9258L27.8299 0.00196838L56.3932 9.75321L51.7765 46.5577L27.8299 59.8038L4.27156 46.7303L0 9.9258Z" fill="#E23237"/>
<path fill-rule="evenodd" clip-rule="evenodd" d="M56.3932 9.75124L27.8299 0V59.8019L51.7765 46.5557L56.3932 9.75124V9.75124Z" fill="#B52E31"/>
<path fill-rule="evenodd" clip-rule="evenodd" d="M27.873 6.98982L10.5279 45.5633L17 45.4338L20.4949 36.7181H35.9847L39.7816 45.5201L45.9517 45.6496L27.873 6.98982V6.98982ZM27.9162 19.373L33.7842 31.6268H22.7817L27.9162 19.373V19.373Z" fill="white"/>
</svg>
