<svg width="90" height="90" xmlns="http://www.w3.org/2000/svg" version="1.1">
 <g id="Layer_1">
  <title>Layer 1</title>
  <ellipse stroke="#ffffff" ry="44.5" rx="44.5" id="svg_1" cy="45" cx="45" fill="#fff"/>
  <g stroke="null">
   <g stroke="null" id="svg_3">
    <path stroke="null" fill="#444444" d="m69.34203,69.7l-9.24298,0l0.64122,-7.06119l-4.53547,0l-0.64122,7.06119l-19.14281,0l-0.64122,-7.06119l-4.53547,0l0.64122,7.06119l-9.24298,0l-5.19233,-30.58433l12.98083,-18.81567l31.13835,0l12.98083,18.81567l-5.20797,30.58433zm-10.36902,-39.98507l-8.33588,0l0.56302,3.5306l-10.38466,0l0.56302,-3.5306l-8.36716,0l-5.19233,9.41492l2.59617,18.81567l31.13835,0l2.59617,-18.81567l-5.17669,-9.41492zm-4.55111,21.97761c-0.71942,0 -1.29808,-1.95672 -1.29808,-4.38134c0,-2.41045 0.57866,-4.38134 1.29808,-4.38134c0.71942,0 1.29808,1.95672 1.29808,4.38134c0,2.42463 -0.57866,4.38134 -1.29808,4.38134zm-16.37461,0.36866c-0.71942,0 -1.29808,-1.95672 -1.29808,-4.38134s0.57866,-4.38134 1.29808,-4.38134c0.71942,0 1.29808,1.95672 1.29808,4.38134s-0.57866,4.38134 -1.29808,4.38134z" class="st0" id="svg_4"/>
   </g>
  </g>
 </g>

</svg>