<svg width="80" height="80" viewBox="0 0 80 80" fill="none" xmlns="http://www.w3.org/2000/svg">
<rect width="80" height="80" rx="5" fill="#F6F6F6"/>
<path d="M57.8956 61.9417H50.6113L51.1167 55.8036H47.5423L47.037 61.9417H31.9507L31.4454 55.8036H27.871L28.3763 61.9417H21.092L17 35.3558L27.2301 19H51.7699L62 35.3558L57.8956 61.9417ZM49.7239 27.1841H43.1545L43.5982 30.2531H35.4141L35.8578 27.1841H29.2638L25.1717 35.3681L27.2177 51.7239H51.7576L53.8036 35.3681L49.7239 27.1841ZM46.1372 46.2884C45.5703 46.2884 45.1142 44.5875 45.1142 42.4799C45.1142 40.3845 45.5703 38.6713 46.1372 38.6713C46.7042 38.6713 47.1602 40.3722 47.1602 42.4799C47.1602 44.5875 46.7042 46.2884 46.1372 46.2884ZM33.2325 46.6089C32.6656 46.6089 32.2095 44.908 32.2095 42.8003C32.2095 40.6927 32.6656 38.9918 33.2325 38.9918C33.7995 38.9918 34.2555 40.6927 34.2555 42.8003C34.2555 44.908 33.7995 46.6089 33.2325 46.6089Z" fill="#444444"/>
</svg>
