<svg width="80" height="80" viewBox="0 0 80 80" fill="none" xmlns="http://www.w3.org/2000/svg">
<rect width="80" height="80" rx="5" fill="#F6F6F6"/>
<path d="M40.5 62C52.9264 62 63 51.9264 63 39.5C63 27.0736 52.9264 17 40.5 17C28.0736 17 18 27.0736 18 39.5C18 51.9264 28.0736 62 40.5 62Z" fill="#2B2E3A"/>
<path d="M35.6663 29.6018C31.0951 28.7693 27.4807 29.6406 26.0402 32.1356C24.9653 33.9975 25.2726 36.466 26.7855 39.1047C26.8154 39.1595 26.8559 39.2078 26.9047 39.2467C26.9535 39.2856 27.0095 39.3144 27.0696 39.3314C27.1297 39.3484 27.1925 39.3532 27.2545 39.3456C27.3164 39.3379 27.3762 39.318 27.4304 39.287C27.4845 39.2559 27.5319 39.2144 27.5698 39.1647C27.6077 39.1151 27.6352 39.0584 27.6509 38.998C27.6666 38.9376 27.6701 38.8747 27.6611 38.8129C27.6521 38.7511 27.6309 38.6918 27.5987 38.6383C26.236 36.2614 25.9708 34.1311 26.8521 32.6045C28.0489 30.5318 31.2727 29.7545 35.4983 30.5241C35.6197 30.5443 35.7442 30.5159 35.8449 30.4451C35.9456 30.3743 36.0144 30.2668 36.0365 30.1457C36.0586 30.0246 36.0321 29.8996 35.9629 29.7979C35.8936 29.6961 35.7871 29.6257 35.6663 29.6018ZM29.1626 42.312C31.0109 44.3431 33.4123 46.2484 36.151 47.8294C42.782 51.6579 49.8413 52.6811 53.3204 50.309C53.3724 50.2748 53.4172 50.2306 53.4519 50.179C53.4867 50.1273 53.5108 50.0693 53.5229 50.0082C53.535 49.9471 53.5348 49.8843 53.5224 49.8233C53.5099 49.7623 53.4854 49.7044 53.4504 49.6529C53.4153 49.6015 53.3703 49.5576 53.3181 49.5237C53.2658 49.4899 53.2074 49.4667 53.1461 49.4557C53.0848 49.4447 53.022 49.446 52.9612 49.4595C52.9005 49.473 52.843 49.4985 52.7922 49.5345C49.6784 51.6576 42.9727 50.6855 36.6198 47.0176C33.963 45.4838 31.6376 43.6388 29.8561 41.6809C29.8147 41.6351 29.7647 41.5979 29.7089 41.5715C29.6532 41.545 29.5927 41.5299 29.5311 41.5269C29.4694 41.5238 29.4078 41.533 29.3497 41.5539C29.2916 41.5747 29.2382 41.6068 29.1926 41.6484C29.1469 41.6899 29.1099 41.74 29.0837 41.7959C29.0575 41.8518 29.0426 41.9123 29.0398 41.9739C29.037 42.0356 29.0464 42.0972 29.0675 42.1552C29.0886 42.2132 29.1209 42.2665 29.1626 42.312Z" fill="#9FEAF9"/>
<path d="M52.2105 41.7417C55.2037 38.2057 56.2488 34.6493 54.8112 32.1596C53.7536 30.3274 51.5174 29.3601 48.5455 29.3214C48.4223 29.3216 48.3042 29.3702 48.2166 29.4568C48.129 29.5434 48.079 29.661 48.0774 29.7841C48.0758 29.9073 48.1228 30.0261 48.2081 30.115C48.2934 30.2038 48.4103 30.2555 48.5334 30.2588C51.2061 30.2936 53.1327 31.127 53.9995 32.6284C55.1934 34.6964 54.2614 37.8679 51.4949 41.136C51.4543 41.1829 51.4235 41.2373 51.4041 41.2962C51.3847 41.3551 51.3771 41.4173 51.3819 41.4791C51.3867 41.5409 51.4037 41.6012 51.432 41.6564C51.4602 41.7116 51.4991 41.7607 51.5464 41.8007C51.5938 41.8408 51.6486 41.8711 51.7077 41.8898C51.7668 41.9085 51.829 41.9153 51.8908 41.9099C51.9526 41.9044 52.0126 41.8867 52.0675 41.8578C52.1224 41.829 52.171 41.7895 52.2105 41.7417ZM44.5182 29.7579C41.8119 30.3378 38.9312 31.4715 36.1647 33.0687C29.3194 37.0208 24.8541 42.8485 25.4742 47.0741C25.4825 47.1356 25.5029 47.1948 25.5342 47.2483C25.5655 47.3019 25.6072 47.3487 25.6568 47.386C25.7063 47.4234 25.7628 47.4505 25.8229 47.4658C25.883 47.4812 25.9456 47.4844 26.007 47.4754C26.0684 47.4664 26.1273 47.4453 26.1805 47.4133C26.2337 47.3813 26.28 47.3391 26.3167 47.2891C26.3534 47.2391 26.3799 47.1823 26.3945 47.122C26.4091 47.0617 26.4116 46.9991 26.4018 46.9378C25.8511 43.186 30.0839 37.662 36.6335 33.8806C39.3172 32.3311 42.1065 31.2334 44.7145 30.6746C44.7756 30.6625 44.8336 30.6385 44.8852 30.6038C44.9369 30.5691 44.9811 30.5245 45.0153 30.4725C45.0496 30.4206 45.0731 30.3623 45.0846 30.3012C45.0961 30.2401 45.0953 30.1772 45.0823 30.1164C45.0692 30.0556 45.0442 29.9979 45.0087 29.9469C44.9732 29.8958 44.9279 29.8523 44.8754 29.8189C44.8228 29.7856 44.7642 29.763 44.7029 29.7525C44.6416 29.742 44.5788 29.7438 44.5182 29.7579Z" fill="#9FEAF9"/>
<path d="M33.4283 50.0035C34.9935 54.3734 37.5537 57.0641 40.4327 57.0641C42.5324 57.0641 44.4749 55.6327 45.9898 53.1129C46.0226 53.0601 46.0446 53.0013 46.0545 52.9399C46.0643 52.8786 46.0619 52.8159 46.0473 52.7555C46.0327 52.6951 46.0063 52.6382 45.9695 52.5881C45.9328 52.538 45.8864 52.4957 45.8331 52.4637C45.7799 52.4317 45.7208 52.4106 45.6593 52.4016C45.5978 52.3926 45.5352 52.396 45.475 52.4114C45.4148 52.4269 45.3583 52.4541 45.3087 52.4916C45.2592 52.5291 45.2176 52.5761 45.1863 52.6298C43.8249 54.8944 42.1527 56.1264 40.4327 56.1264C38.0412 56.1264 35.7576 53.7267 34.3111 49.6876C34.2913 49.6284 34.2599 49.5738 34.2187 49.527C34.1775 49.4801 34.1274 49.442 34.0713 49.4147C34.0152 49.3875 33.9542 49.3717 33.8919 49.3684C33.8296 49.365 33.7673 49.3741 33.7086 49.3951C33.6499 49.4161 33.5959 49.4486 33.5499 49.4908C33.5039 49.5329 33.4668 49.5838 33.4407 49.6404C33.4146 49.6971 33.4001 49.7584 33.398 49.8207C33.3959 49.883 33.4063 49.9452 33.4285 50.0035H33.4283ZM47.7232 49.1486C48.5336 46.5597 48.9686 43.5732 48.9686 40.461C48.9686 32.6952 46.2505 26.0007 42.3791 24.2817C42.266 24.2344 42.1389 24.2332 42.0249 24.2785C41.911 24.3237 41.8193 24.4118 41.7695 24.5239C41.7198 24.636 41.7159 24.7631 41.7587 24.878C41.8016 24.9928 41.8877 25.0864 41.9987 25.1385C45.4516 26.6718 48.031 33.0251 48.031 40.461C48.031 43.4804 47.6097 46.3725 46.8287 48.8686C46.8093 48.9276 46.8018 48.9899 46.8067 49.0519C46.8115 49.1138 46.8287 49.1741 46.8571 49.2294C46.8855 49.2846 46.9246 49.3337 46.9722 49.3737C47.0197 49.4137 47.0747 49.4439 47.134 49.4624C47.1933 49.481 47.2557 49.4876 47.3175 49.4818C47.3794 49.476 47.4395 49.458 47.4943 49.4288C47.5492 49.3996 47.5977 49.3598 47.637 49.3117C47.6763 49.2636 47.7057 49.2082 47.7234 49.1486H47.7232ZM56.5516 48.6895C56.5516 47.4504 55.5472 46.446 54.3082 46.446C53.0691 46.446 52.0647 47.4504 52.0647 48.6895C52.0647 49.9286 53.0691 50.933 54.3082 50.933C55.5472 50.933 56.5516 49.9286 56.5516 48.6895ZM55.6142 48.6895C55.6142 48.861 55.5804 49.0308 55.5148 49.1893C55.4492 49.3478 55.353 49.4917 55.2317 49.613C55.1104 49.7343 54.9664 49.8305 54.808 49.8961C54.6495 49.9618 54.4797 49.9955 54.3082 49.9955C54.1366 49.9955 53.9668 49.9618 53.8083 49.8961C53.6499 49.8305 53.5059 49.7343 53.3846 49.613C53.2634 49.4917 53.1671 49.3478 53.1015 49.1893C53.0359 49.0308 53.0021 48.861 53.0021 48.6895C53.0021 48.3431 53.1397 48.0109 53.3846 47.766C53.6296 47.521 53.9618 47.3834 54.3082 47.3834C54.6545 47.3834 54.9867 47.521 55.2317 47.766C55.4766 48.0109 55.6142 48.3431 55.6142 48.6895ZM26.5249 50.933C27.7641 50.933 28.7685 49.9286 28.7685 48.6895C28.7685 47.4504 27.764 46.446 26.5249 46.446C25.286 46.446 24.2814 47.4504 24.2814 48.6895C24.2814 49.9286 25.286 50.933 26.5249 50.933ZM26.5249 49.9955C26.1785 49.9955 25.8463 49.8579 25.6013 49.613C25.3564 49.3681 25.2188 49.0359 25.2188 48.6895C25.2188 48.3431 25.3564 48.0109 25.6013 47.766C25.8463 47.521 26.1785 47.3834 26.5249 47.3834C26.8713 47.3834 27.2035 47.521 27.4484 47.766C27.6933 48.0109 27.8309 48.3431 27.8309 48.6895C27.8309 49.0359 27.6933 49.3681 27.4484 49.613C27.2035 49.8579 26.8713 49.9955 26.5249 49.9955Z" fill="#9FEAF9"/>
<path d="M40.4327 26.5702C41.6718 26.5702 42.6762 25.5658 42.6762 24.3267C42.6762 23.0877 41.6718 22.0832 40.4327 22.0832C39.1936 22.0832 38.1892 23.0877 38.1892 24.3267C38.1892 25.5658 39.1936 26.5702 40.4327 26.5702ZM40.4327 25.6328C40.0863 25.6328 39.7541 25.4952 39.5092 25.2503C39.2643 25.0053 39.1267 24.6731 39.1267 24.3267C39.1267 23.9804 39.2643 23.6482 39.5092 23.4032C39.7541 23.1583 40.0863 23.0207 40.4327 23.0207C40.7791 23.0207 41.1113 23.1583 41.3562 23.4032C41.6012 23.6482 41.7388 23.9804 41.7388 24.3267C41.7388 24.6731 41.6012 25.0053 41.3562 25.2503C41.1113 25.4952 40.7791 25.6328 40.4327 25.6328ZM40.7753 42.0476C39.899 42.2369 39.0358 41.68 38.8461 40.8038C38.7553 40.383 38.8353 39.9434 39.0685 39.5815C39.3018 39.2197 39.6692 38.9654 40.0899 38.8744C40.9662 38.6851 41.8295 39.242 42.0193 40.1182C42.2086 40.9945 41.6517 41.8579 40.7753 42.0476Z" fill="#9FEAF9"/>
</svg>
