<svg xmlns="http://www.w3.org/2000/svg" width="22" height="22" fill="none" viewBox="0 0 22 22">
    <path fill="#47848F" fill-rule="evenodd" d="M12.12 3.154v.05c1.84.989 3.12 4.359 3.12 8.253 0 1.601-.216 3.138-.617 4.47-.039.127-.169.198-.291.158-.123-.04-.191-.175-.153-.302.387-1.284.596-2.773.596-4.326 0-3.667-1.174-6.822-2.778-7.773-.185.371-.559.625-.989.625-.614 0-1.112-.517-1.112-1.155 0-.637.498-1.154 1.112-1.154.614 0 1.112.517 1.112 1.154zm-1.76 0c0 .372.29.672.648.672.358 0 .648-.3.648-.672 0-.37-.29-.672-.648-.672-.358 0-.647.301-.647.672zM7.535 16.367C8.311 18.615 9.581 20 11.008 20c1.041 0 2.004-.736 2.755-2.033.066-.114.03-.262-.08-.331s-.252-.032-.318.082c-.675 1.166-1.504 1.8-2.357 1.8-1.186 0-2.318-1.235-3.035-3.314-.043-.125-.176-.19-.297-.146-.121.045-.184.183-.14.309zM3.872 7.173c.714-1.284 2.506-1.733 4.773-1.304.126.024.21.15.187.28-.023.131-.144.218-.27.194-2.096-.396-3.694.004-4.287 1.07-.437.786-.306 1.883.37 3.106.064.115.025.263-.086.329-.112.066-.254.026-.317-.09-.75-1.357-.903-2.627-.37-3.585zm5.013 8.075c-1.358-.813-2.548-1.794-3.465-2.839-.086-.099-.08-.251.016-.34.095-.09.242-.083.328.015.883 1.008 2.036 1.957 3.353 2.746 3.01 1.804 6.18 2.34 7.803 1.431-.092-.168-.145-.363-.145-.57 0-.638.498-1.155 1.113-1.155.614 0 1.112.517 1.112 1.155 0 .637-.498 1.154-1.112 1.154-.243 0-.466-.08-.65-.216-1.774 1.083-5.163.53-8.353-1.38zm8.574.94l.008.013c.113.101.26.162.42.162.358 0 .648-.301.648-.672 0-.371-.29-.672-.647-.672-.358 0-.648.3-.648.672 0 .163.056.312.149.428.027.018.05.041.07.07zm.678-9.003c.713 1.281.195 3.111-1.29 4.93-.082.102-.229.115-.327.029-.098-.086-.11-.238-.027-.34 1.372-1.682 1.834-3.314 1.242-4.378-.43-.772-1.385-1.201-2.71-1.22-.129 0-.232-.11-.23-.243.002-.134.107-.24.236-.238 1.473.02 2.582.517 3.106 1.46zm-9.245.468c1.372-.822 2.8-1.405 4.142-1.704.125-.028.249.055.276.185.026.13-.053.259-.179.287-1.293.287-2.676.852-4.007 1.65-3.11 1.863-5.166 4.549-5.095 6.469.028-.003.055-.004.083-.004.615 0 1.113.517 1.113 1.155 0 .637-.498 1.154-1.113 1.154-.614 0-1.112-.517-1.112-1.154 0-.434.23-.812.572-1.01-.168-2.157 2.018-5.05 5.32-7.028zm-4.78 8.71c-.357 0-.647-.301-.647-.672 0-.371.29-.672.647-.672.358 0 .648.3.648.672 0 .37-.29.672-.648.672zm6.11-4.73c.093.45.521.738.956.64.434-.098.71-.542.617-.993-.094-.45-.522-.737-.957-.64-.434.098-.71.542-.617.993z" clip-rule="evenodd"/>
</svg>
