<svg width="188" height="60" viewBox="0 0 188 60" fill="none" xmlns="http://www.w3.org/2000/svg">
<path d="M38.8458 38.7439H49.1725C49.4663 38.7439 49.7149 38.4973 49.7149 38.2058C49.7149 37.9143 49.4663 37.6676 49.1725 37.6676H39.4333V31.3666H48.0427C48.3365 31.3666 48.585 31.1199 48.585 30.8284C48.585 30.5369 48.3365 30.2902 48.0427 30.2902H39.4333V24.1237H49.0596C49.3533 24.1237 49.6019 23.8771 49.6019 23.5856C49.6019 23.2941 49.3533 23.0474 49.0596 23.0474H38.8458C38.5295 23.0474 38.2583 23.3165 38.2583 23.6304V38.1609C38.2583 38.4748 38.5295 38.7439 38.8458 38.7439ZM56.8845 38.1609C56.8845 38.4748 57.1557 38.7439 57.472 38.7439H66.8949C67.1886 38.7439 67.4372 38.4973 67.4372 38.2058C67.4372 37.9143 67.1886 37.6676 66.8949 37.6676H58.0595V23.5407C58.0595 23.2268 57.7884 22.9577 57.472 22.9577C57.1557 22.9577 56.8845 23.2268 56.8845 23.5407V38.1609ZM74.9458 38.7439H85.2725C85.5662 38.7439 85.8148 38.4973 85.8148 38.2058C85.8148 37.9143 85.5662 37.6676 85.2725 37.6676H75.5333V31.3666H84.1426C84.4364 31.3666 84.685 31.1199 84.685 30.8284C84.685 30.5369 84.4364 30.2902 84.1426 30.2902H75.5333V24.1237H85.1595C85.4533 24.1237 85.7018 23.8771 85.7018 23.5856C85.7018 23.2941 85.4533 23.0474 85.1595 23.0474H74.9458C74.6294 23.0474 74.3582 23.3165 74.3582 23.6304V38.1609C74.3582 38.4748 74.6294 38.7439 74.9458 38.7439ZM100.148 39.013C102.791 39.013 104.531 38.0488 106.136 36.5688C106.226 36.4791 106.317 36.3446 106.317 36.1652C106.317 35.8737 106.045 35.6046 105.752 35.6046C105.571 35.6046 105.435 35.6943 105.345 35.784C103.853 37.1967 102.34 37.9591 100.193 37.9591C96.4192 37.9591 93.5042 34.8646 93.5042 30.8957V30.8508C93.5042 26.9043 96.374 23.8322 100.17 23.8322C102.385 23.8322 103.899 24.6843 105.209 25.8728C105.3 25.9625 105.458 26.0297 105.616 26.0297C105.932 26.0297 106.226 25.7607 106.226 25.4467C106.226 25.2449 106.113 25.088 106 24.9758C104.464 23.6753 102.814 22.7783 100.193 22.7783C95.6283 22.7783 92.2839 26.4558 92.2839 30.8957V30.9405C92.2839 35.4477 95.6283 39.013 100.148 39.013ZM117.531 38.2506C117.531 38.5645 117.802 38.8336 118.118 38.8336C118.435 38.8336 118.706 38.5645 118.706 38.2506V24.1237H123.768C124.061 24.1237 124.31 23.8771 124.31 23.5856C124.31 23.2941 124.061 23.0474 123.768 23.0474H112.469C112.176 23.0474 111.927 23.2941 111.927 23.5856C111.927 23.8771 112.176 24.1237 112.469 24.1237H117.531V38.2506ZM131.276 38.2506C131.276 38.5645 131.547 38.8336 131.864 38.8336C132.18 38.8336 132.451 38.5645 132.451 38.2506V32.2411H137.626L142.484 38.5197C142.62 38.6991 142.778 38.8336 143.004 38.8336C143.32 38.8336 143.614 38.5421 143.614 38.2282C143.614 38.0936 143.546 37.9591 143.433 37.8246L138.937 32.0393C141.603 31.6805 143.569 30.1781 143.569 27.5545V27.5097C143.569 26.3885 143.117 25.3346 142.371 24.5946C141.422 23.6528 139.863 23.0474 137.92 23.0474H131.864C131.547 23.0474 131.276 23.3165 131.276 23.6304V38.2506ZM132.451 31.1872V24.1237H137.852C140.722 24.1237 142.394 25.4467 142.394 27.5545V27.5994C142.394 29.8642 140.428 31.1872 137.784 31.1872H132.451ZM158.331 39.013C163.122 39.013 166.308 35.1786 166.308 30.8957V30.8508C166.308 26.5679 163.167 22.7783 158.376 22.7783C153.586 22.7783 150.4 26.6128 150.4 30.8957V30.9405C150.4 35.2234 153.541 39.013 158.331 39.013ZM158.376 37.9591C154.467 37.9591 151.62 34.775 151.62 30.8957V30.8508C151.62 26.9715 154.422 23.8322 158.331 23.8322C162.24 23.8322 165.087 27.0164 165.087 30.8957V30.9405C165.087 34.8198 162.285 37.9591 158.376 37.9591ZM173.794 38.273C173.794 38.587 174.042 38.8336 174.359 38.8336C174.675 38.8336 174.924 38.587 174.924 38.273V24.7516L185.793 38.43C185.973 38.6542 186.154 38.8112 186.38 38.8112H186.47C186.742 38.8112 186.945 38.587 186.945 38.3179V23.5183C186.945 23.2044 186.696 22.9577 186.38 22.9577C186.064 22.9577 185.815 23.2044 185.815 23.5183V36.7482L175.15 23.3165C174.991 23.1147 174.811 22.9801 174.562 22.9801H174.381C174.065 22.9801 173.794 23.2492 173.794 23.5631V38.273Z" fill="#0937AF"/>
<path d="M9.62696 21.8263C5.89868 21.1411 2.95087 21.8582 1.77602 23.9115C0.899317 25.4437 1.14992 27.4752 2.38377 29.6467C2.48879 29.8315 2.72242 29.8955 2.90559 29.7895C3.08876 29.6835 3.15212 29.4478 3.0471 29.263C1.93563 27.3069 1.71935 25.5536 2.4382 24.2973C3.41415 22.5916 6.04354 21.9519 9.48995 22.5853C9.69768 22.6235 9.89674 22.4845 9.93458 22.2749C9.97241 22.0653 9.83469 21.8645 9.62696 21.8263ZM4.3226 32.2862C5.83011 33.9578 7.78862 35.5257 10.0222 36.8269C15.4304 39.9775 21.1878 40.8197 24.0254 38.8674C24.1998 38.7474 24.2448 38.5074 24.1258 38.3314C24.0069 38.1553 23.769 38.1099 23.5946 38.23C21.0551 39.9772 15.5859 39.1773 10.4045 36.1587C8.23768 34.8964 6.3412 33.3782 4.88812 31.7669C4.74601 31.6093 4.50422 31.5978 4.34806 31.7412C4.19189 31.8846 4.1805 32.1286 4.3226 32.2862Z" fill="#0937AF"/>
<path d="M23.1202 31.8169C25.5614 28.9069 26.4138 25.9802 25.2414 23.9311C24.3787 22.4234 22.5549 21.6273 20.1311 21.5955C19.92 21.5928 19.7466 21.7632 19.7438 21.9762C19.7411 22.1893 19.91 22.3642 20.1212 22.367C22.301 22.3956 23.8723 23.0814 24.5792 24.3169C25.553 26.0189 24.7929 28.6289 22.5366 31.3184C22.4002 31.481 22.4203 31.7244 22.5814 31.8621C22.7426 31.9997 22.9838 31.9795 23.1202 31.8169ZM16.8464 21.9547C14.6392 22.4319 12.2898 23.3649 10.0334 24.6793C4.45045 27.9318 0.808552 32.7277 1.31435 36.2051C1.34501 36.4159 1.53922 36.5617 1.74812 36.5308C1.95703 36.4998 2.10152 36.3039 2.07086 36.0931C1.62177 33.0055 5.07393 28.4595 10.4157 25.3475C12.6046 24.0724 14.8794 23.169 17.0066 22.7091C17.213 22.6645 17.3445 22.4594 17.3003 22.2511C17.2561 22.0428 17.0529 21.9101 16.8464 21.9547Z" fill="#0937AF"/>
<path d="M7.80179 38.616C9.07815 42.2123 11.1663 44.4265 13.5143 44.4265C15.2268 44.4265 16.8112 43.2487 18.0466 41.1749C18.1554 40.9923 18.0969 40.7553 17.916 40.6455C17.735 40.5358 17.5001 40.5948 17.3913 40.7774C16.281 42.6411 14.9171 43.655 13.5143 43.655C11.5639 43.655 9.70144 41.6801 8.52163 38.3559C8.45044 38.1553 8.23159 38.051 8.03281 38.1228C7.83403 38.1946 7.7306 38.4155 7.80179 38.616ZM19.4605 37.9126C20.1212 35.782 20.4761 33.3241 20.4761 30.7629C20.4761 24.372 18.2593 18.8628 15.1018 17.4481C14.9089 17.3616 14.683 17.4494 14.5973 17.6441C14.5116 17.8388 14.5986 18.0668 14.7915 18.1532C17.6076 19.415 19.7115 24.6435 19.7115 30.7629C19.7115 33.2477 19.3678 35.6279 18.7307 37.6822C18.6677 37.8855 18.7799 38.1019 18.9814 38.1655C19.1829 38.2291 19.3974 38.1159 19.4605 37.9126Z" fill="#0937AF"/>
<path d="M26.6608 37.5346C26.6608 36.5149 25.8416 35.6882 24.831 35.6882C23.8204 35.6882 23.0012 36.5149 23.0012 37.5346C23.0012 38.5543 23.8204 39.3809 24.831 39.3809C25.8416 39.3809 26.6608 38.5543 26.6608 37.5346ZM25.8962 37.5346C25.8962 38.1282 25.4193 38.6094 24.831 38.6094C24.2427 38.6094 23.7658 38.1282 23.7658 37.5346C23.7658 36.941 24.2427 36.4598 24.831 36.4598C25.4193 36.4598 25.8962 36.941 25.8962 37.5346Z" fill="#0937AF"/>
<path d="M2.17134 39.3809C3.18191 39.3809 4.00113 38.5543 4.00113 37.5346C4.00113 36.5149 3.18191 35.6882 2.17134 35.6882C1.16078 35.6882 0.341553 36.5149 0.341553 37.5346C0.341553 38.5543 1.16078 39.3809 2.17134 39.3809ZM2.17134 38.6094C1.58306 38.6094 1.10617 38.1282 1.10617 37.5346C1.10617 36.941 1.58306 36.4598 2.17134 36.4598C2.75962 36.4598 3.23651 36.941 3.23651 37.5346C3.23651 38.1282 2.75962 38.6094 2.17134 38.6094Z" fill="#0937AF"/>
<path d="M13.5144 19.3313C14.5249 19.3313 15.3441 18.5047 15.3441 17.485C15.3441 16.4653 14.5249 15.6387 13.5144 15.6387C12.5038 15.6387 11.6846 16.4653 11.6846 17.485C11.6846 18.5047 12.5038 19.3313 13.5144 19.3313ZM13.5144 18.5598C12.9261 18.5598 12.4492 18.0786 12.4492 17.485C12.4492 16.8914 12.9261 16.4102 13.5144 16.4102C14.1026 16.4102 14.5795 16.8914 14.5795 17.485C14.5795 18.0786 14.1026 18.5598 13.5144 18.5598Z" fill="#0937AF"/>
<path d="M13.7938 32.0686C13.0791 32.2244 12.375 31.7661 12.2202 31.0449C12.0661 30.3238 12.52 29.6133 13.2347 29.4572C13.9494 29.3014 14.6535 29.7597 14.8082 30.4808C14.9627 31.202 14.5085 31.9124 13.7938 32.0686Z" fill="#0937AF"/>
</svg>
