<svg width="156" height="60" viewBox="0 0 156 60" fill="none" xmlns="http://www.w3.org/2000/svg">
<path fill-rule="evenodd" clip-rule="evenodd" d="M152.29 41.1687C152.29 41.1687 148.522 44.0919 145.206 43.7655C141.889 43.4391 142.93 36.0279 142.93 36.0279C142.93 36.0279 143.646 29.2311 141.692 28.6599C139.743 28.0935 137.338 30.4311 137.338 30.4311C137.338 30.4311 134.348 33.7479 132.918 37.9767L132.524 38.1063C132.524 38.1063 132.98 30.6903 132.462 29.0007C132.073 28.1559 128.497 28.2231 127.911 29.7159C127.326 31.2135 124.465 41.6151 124.268 45.9735C124.268 45.9735 118.676 50.7207 113.804 51.4983C108.927 52.2807 107.756 49.2231 107.756 49.2231C107.756 49.2231 121.018 45.5175 120.562 34.9191C120.111 24.3207 109.868 28.2423 108.711 29.1111C107.588 29.9559 101.602 33.5655 99.8553 43.5639C99.7977 43.8999 99.6921 45.3879 99.6921 45.3879C99.6921 45.3879 94.5561 48.8295 91.6953 49.7415C91.6953 49.7415 99.6921 36.2823 89.9433 30.1719C87.2014 28.5214 84.8115 30.0399 83.3898 31.4342C82.5168 32.2905 95.2089 18.4071 92.2809 5.98469C90.8889 0.0710869 87.9321 -0.562513 85.2201 0.397487C81.1017 2.01989 79.5417 4.42469 79.5417 4.42469C79.5417 4.42469 74.2089 12.1623 72.9705 23.6727C71.7369 35.1783 69.9177 49.0935 69.9177 49.0935C69.9177 49.0935 67.3785 51.5655 65.0409 51.6951C62.6985 51.8199 63.7401 44.7351 63.7401 44.7351C63.7401 44.7351 65.5593 33.9447 65.4345 32.1207C65.3001 30.3015 65.1705 29.3271 63.0249 28.6791C60.8793 28.0263 58.5369 30.7575 58.5369 30.7575C58.5369 30.7575 52.3641 40.1175 51.8457 41.5479L51.5145 42.1383L51.1929 41.7447C51.1929 41.7447 55.5465 29.0007 51.3897 28.8087C47.2281 28.6119 44.4969 33.3591 44.4969 33.3591C44.4969 33.3591 39.7497 41.2935 39.5529 42.2007L39.2313 41.8119C39.2313 41.8119 41.1801 32.5815 40.7913 30.3015C40.3977 28.0263 38.2569 28.4823 38.2569 28.4823C38.2569 28.4823 35.5257 28.1559 34.8105 29.9127C34.0953 31.6695 31.4937 43.3047 31.1673 47.0103C31.1673 47.0103 24.3417 51.8871 19.8537 51.9495C15.3705 52.0167 15.8265 49.1079 15.8265 49.1079C15.8265 49.1079 32.2761 43.4775 27.7881 32.3607C25.7721 29.4999 23.4345 28.6023 20.1177 28.6647C16.8009 28.7319 12.6873 30.7527 10.0233 36.7335C8.74647 39.5847 8.28567 42.2967 8.02167 44.3415C8.02167 44.3415 5.14647 44.9319 3.58647 43.6311C2.02167 42.3303 1.22007 43.6311 1.22007 43.6311C1.22007 43.6311 -1.45833 47.0487 1.20567 48.0855C3.87447 49.1271 8.03127 49.6119 8.03127 49.6119C8.41527 51.4311 9.52407 54.5271 12.7737 56.9895C17.6505 60.6951 27.0057 56.6487 27.0057 56.6487L30.8409 54.4983C30.8409 54.4983 30.9705 58.0167 33.7689 58.5303C36.5625 59.0439 37.7337 58.5207 42.6105 46.6887C45.4713 40.6407 45.6681 40.9671 45.6681 40.9671C45.9897 40.8999 43.7817 52.4727 44.6265 55.5927C45.4713 58.7175 49.1769 58.3911 49.1769 58.3911C49.1769 58.3911 51.1929 58.7799 52.8201 53.0583C54.4425 47.3367 57.5673 41.0295 57.5673 41.0295C57.9513 41.0295 56.5881 52.8615 58.6665 56.6343C60.7497 60.4071 66.1449 57.9015 66.1449 57.9015C66.1449 57.9015 69.9177 56.0007 70.5033 55.4151C70.5033 55.4151 74.9769 59.2263 81.2889 58.5351C95.4009 55.7559 100.422 52.0023 100.422 52.0023C100.422 52.0023 102.846 58.1463 110.358 58.7175C118.935 59.3655 123.62 53.9703 123.62 53.9703C123.62 53.9703 123.553 57.4791 126.543 58.7175C129.538 59.9511 131.55 53.0055 131.55 53.0055L136.556 39.2103C137.012 39.2103 137.271 48.1815 142.215 49.6119C147.154 51.0423 153.591 46.2615 153.591 46.2615C153.591 46.2615 155.151 45.4023 154.892 42.8007C154.628 40.1991 152.29 41.1687 152.29 41.1687ZM22.0665 34.6599C23.8185 36.3495 23.1705 39.9879 19.8537 42.2631C16.5417 44.5431 15.0441 44.0871 15.0441 44.0871C15.2409 36.3495 20.3145 32.9655 22.0665 34.6599ZM86.7561 7.93829C87.8601 13.7895 77.0697 31.2135 77.0697 31.2135C77.1993 27.3111 81.0345 14.1159 81.0345 14.1159C81.0345 14.1159 85.6473 2.08709 86.7561 7.93829ZM76.0905 52.3431C76.0905 52.3431 75.2457 49.4823 77.6505 41.4855C80.0601 33.4887 85.7145 36.6087 85.7145 36.6087C85.7145 36.6087 89.6169 39.5991 86.5593 47.5959C83.5065 55.5927 76.0905 52.3431 76.0905 52.3431ZM108.99 36.6759C111.654 31.7991 113.737 34.4631 113.737 34.4631C113.737 34.4631 116.012 36.9351 113.41 40.6407C110.809 44.3463 107.041 44.0871 107.041 44.0871C107.041 44.0871 106.326 41.5479 108.99 36.6759Z" fill="#E04E39"/>
<path fill-rule="evenodd" clip-rule="evenodd" d="M135.6 56.408V55.4743H136.192C136.274 55.4743 136.357 55.483 136.443 55.4916C136.529 55.5046 136.612 55.5262 136.681 55.5565C136.754 55.5867 136.81 55.63 136.854 55.6861C136.901 55.7423 136.923 55.8201 136.923 55.9152C136.923 56.1314 136.858 56.2697 136.728 56.3259C136.599 56.3821 136.43 56.408 136.227 56.408H135.6ZM134.896 54.9254V58.4784H135.6V56.9613H136.041L136.906 58.4784H137.645L136.694 56.9267C136.823 56.9137 136.944 56.8878 137.061 56.8489C137.174 56.81 137.273 56.7538 137.355 56.6803C137.442 56.6068 137.506 56.5117 137.554 56.395C137.606 56.2783 137.627 56.14 137.627 55.9757C137.627 55.5911 137.506 55.3187 137.269 55.1631C137.027 55.0032 136.681 54.9254 136.236 54.9254H134.896ZM133.767 56.7062C133.767 56.3431 133.828 56.0103 133.953 55.7078C134.079 55.4052 134.247 55.1458 134.463 54.9254C134.675 54.705 134.93 54.5321 135.22 54.4067C135.514 54.2814 135.825 54.2209 136.158 54.2209C136.486 54.2209 136.797 54.2814 137.087 54.4067C137.381 54.5321 137.632 54.705 137.848 54.9254C138.064 55.1458 138.233 55.4052 138.362 55.7078C138.488 56.0103 138.552 56.3431 138.552 56.7062C138.552 57.0693 138.488 57.4021 138.362 57.709C138.233 58.0116 138.064 58.2796 137.848 58.5C137.632 58.7248 137.381 58.8977 137.087 59.023C136.797 59.1484 136.486 59.2089 136.158 59.2089C135.825 59.2089 135.514 59.1484 135.22 59.023C134.93 58.8977 134.675 58.7248 134.463 58.5C134.247 58.2796 134.079 58.0116 133.953 57.709C133.828 57.4021 133.767 57.0693 133.767 56.7062ZM132.899 56.7062C132.899 57.1947 132.989 57.6312 133.167 58.0202C133.348 58.4136 133.586 58.7464 133.884 59.023C134.187 59.2997 134.533 59.5115 134.926 59.6584C135.319 59.8054 135.73 59.8789 136.158 59.8789C136.59 59.8789 137.001 59.8054 137.394 59.6584C137.787 59.5115 138.133 59.2997 138.436 59.023C138.734 58.7464 138.972 58.4136 139.153 58.0202C139.33 57.6312 139.417 57.1947 139.417 56.7062C139.417 56.2264 139.33 55.7899 139.153 55.4009C138.972 55.0075 138.734 54.6747 138.436 54.4024C138.133 54.1258 137.787 53.914 137.394 53.767C137.001 53.6157 136.59 53.5422 136.158 53.5422C135.73 53.5422 135.319 53.6157 134.926 53.767C134.533 53.914 134.187 54.1258 133.884 54.4024C133.586 54.6747 133.348 55.0075 133.167 55.4009C132.989 55.7899 132.899 56.2264 132.899 56.7062Z" fill="#E04E39"/>
</svg>
