
<svg xmlns="http://www.w3.org/2000/svg" width="48" height="22" fill="none" viewBox="0 0 48 22">
    <path fill="#fff" d="M45.986 14.406c-.107-1.039-.87-1.502-1.585-1.502-.328 0-.588.093-.689.133l-.14.06-.12.085c-.168.126-.462.298-.723.39-.013-.211-.007-.482.027-.707l.007-.04c.194-1.825-.194-2.89-1.15-3.16-.161-.047-.328-.067-.496-.067-.581 0-1.096.278-1.43.516-.282-.35-.75-.549-1.338-.549-.876 0-1.578.404-1.833 1.052-.026.066-.06.165-.1.297-.515-1.124-1.565-1.554-2.541-1.554-.923 0-1.82.357-2.154.608-.013.014-.033.02-.053.04-.876.615-1.558 1.389-2.04 2.321-.234-.807-.749-1.56-1.672-2.13l-.013-.012c-.027-.013-.047-.027-.074-.04.903-1.587 1.706-3.69 1.224-5.694C28.585 2.317 27.314 2 26.6 2c-.295 0-.596.053-.903.159l-.02.006-.02.007c-1.345.522-1.933 1.31-2.06 1.495-.134.198-1.605 2.407-1.96 5.64l-.12 1.098c-.207-.291-.548-.556-1.09-.72-.167-.054-.341-.074-.515-.074-.742 0-1.344.45-1.665.748l-.007-.007c-.281-.41-.729-.655-1.224-.675h-.12c-.79 0-1.418.344-1.88.735-.294-.51-.835-.827-1.47-.827-.054 0-.101 0-.148.007h-.107c-.876 0-1.565.41-1.846 1.09-.02.054-.046.12-.073.206-.69-.847-1.565-1.244-2.742-1.244h-.114c-.736.014-2.568.318-3.692 2.817-.173.384-.307.774-.407 1.158-.202-.092-.42-.14-.643-.14-.588 0-1.03.332-1.243.642-.174.252-.73 1.144-.455 2.017.147.47.488.827.97 1.012.42.165.956.324 1.357.436.248.556.689 1.197 1.471 1.786.556.416 1.264.628 2.1.628 1.405 0 2.762-.602 2.91-.668l.053-.026.013-.014c.268.278.622.477 1.07.563.134.026.308.046.509.046.762 0 1.29-.384 1.779-1.104.4.621 1.13.971 1.992.971h.007c.047 0 .094.034.147.034.455 0 1.024-.16 1.498-.913.395.701 1.117 1.104 1.973 1.104.763 0 1.425-.31 1.545-.37l.027-.013c.254-.132.468-.251.635-.344.569.298 1.431.628 2.488.628.18 0 .361-.006.542-.026l.046-.007.047-.006c2.24-.437 3.699-.966 4.568-1.37.608.675 1.578 1.323 2.963 1.422.154.014.314.02.468.02 1.137 0 2.046-.317 2.715-.668.214.225.481.43.83.57.207.085.42.125.641.125 1.391 0 2.04-1.64 2.22-2.196l.335-.886c.294.31.669.562 1.144.695.26.072.541.112.829.112 1.531 0 3.003-1.071 3.237-1.25.421-.344.883-1.051.782-2.023z"/>
    <path fill="#E24B31" fill-rule="evenodd" d="M44.148 14.08s.635-.258.702.436c.073.695-.348.973-.348.973s-1.732 1.322-3.076.945c-1.338-.383-1.405-2.672-1.405-2.672h-.12l-1.35 3.578s-.543 1.746-1.352 1.415c-.809-.33-.789-1.263-.789-1.263s-1.264 1.442-3.578 1.27c-2.02-.152-2.675-1.786-2.675-1.786s-1.35 1.005-5.156 1.746c-1.706.185-2.91-.82-2.91-.82-.16.159-1.176.688-1.176.688s-1.451.707-2.013-.298c-.562-1.005-.194-4.073-.194-4.073H18.6s-.836 1.594-1.278 3.121c-.441 1.528-.983 1.336-.983 1.336s-.996.086-1.224-.747c-.227-.834.368-3.915.368-3.915l-.087.02s-.053-.086-.822 1.527c-1.311 3.148-1.625 3.3-2.381 3.161-.756-.139-.79-1.058-.79-1.058l-1.036.608s-2.528 1.138-3.839.152c-.876-.654-1.177-1.388-1.277-1.838 0 0-1.11-.258-1.826-.535-.715-.278.02-1.316.02-1.316s.241-.344.663 0c.42.35 1.25.191 1.25.191 0-.549.14-1.27.482-2.03.722-1.593 1.772-2.129 2.668-2.149.89-.013 1.525.225 2.066.985 1.21 2.963-3.223 4.464-3.223 4.464s-.127.78 1.083.76c1.21-.013 3.05-1.316 3.05-1.316.087-.985.79-4.086.983-4.556.194-.47.93-.383.93-.383s.575-.126.682.482c.107.609-.421 3.069-.421 3.069l.086.106c.054-.238 1.331-2.354 1.331-2.354s.736-1.263 1.86-1.21c1.123.046-.054 3.445-.054 3.445l.087.105.087-.158c.14-.384 1.805-2.877 1.805-2.877s.636-.727 1.211-.555c.582.172.615.436.649.919.033.483-.455 3.36-.455 3.36s-.28 1.884.348 1.85c.628-.032 1.31-.694 1.31-.694s.489-3.703.823-6.771c.334-3.068 1.772-5.132 1.772-5.132s.422-.634 1.532-1.07c.735-.259 1.531-.087 1.906 1.487.63 2.65-1.518 5.684-2.404 6.793.383-.373 1.032-.787 1.775-.346 2.628 1.634.475 5.218.475 5.218.769-.245 2.153-1.164 2.153-1.164s.034-.397.047-.49c.442-2.478 1.867-3.48 2.306-3.79l.082-.058c.314-.231 3.076-1.276 3.197 1.548.127 2.823-3.451 3.809-3.451 3.809s.314.813 1.631.608c1.318-.212 2.823-1.475 2.823-1.475.053-1.164.822-3.934.983-4.331.154-.397 1.117-.417 1.224-.192.14.45.02 2.427.02 2.427l.107-.033c.38-1.124 1.19-2.01 1.19-2.01s.649-.622 1.177-.47c.528.152.334 1.964.334 1.964s-.28 1.97.61 2.063c.895.086 1.912-.694 1.912-.694zM26.492 5.225c-.3-1.56-1.545 1.647-1.545 1.647s-1.036 3.511-1.063 4.556c0 0 2.91-4.642 2.608-6.203zm5.464 9.629s-.194-.675.528-1.977c.716-1.297 1.278-.59 1.278-.59s.615.662-.087 1.647c-.702.993-1.719.92-1.719.92zm-5.517.939c-.823 2.129-2.823 1.263-2.823 1.263s-.227-.76.422-2.897c.649-2.129 2.173-1.296 2.173-1.296s1.05.8.228 2.93zm-19.28-.94c.053-2.063 1.417-2.962 1.892-2.512.475.45.3 1.421-.596 2.03-.889.608-1.297.483-1.297.483z" clip-rule="evenodd"/>
</svg>
