<svg width="45" height="45" viewBox="0 0 45 45" fill="none" xmlns="http://www.w3.org/2000/svg">
<circle cx="22.5" cy="22.5" r="22.5" fill="#FEE8E3"/>
<path d="M35 34.0234C35 34.4104 34.7521 35 34.0236 35C33.5689 35 33.2097 34.6022 33.1993 34.5918C32.3584 33.7508 31.0897 33.5383 30.0427 34.0631C28.8023 34.6848 27.4443 35 26.0068 35C23.1068 35 20.452 33.6824 18.7386 31.3845C18.4162 30.9521 18.5054 30.3403 18.9377 30.0179C19.3701 29.6955 19.9821 29.7847 20.3043 30.217C21.6453 32.0155 23.728 33.0469 26.0059 33.0469C27.1378 33.0469 28.2012 32.8013 29.1676 32.317C30.4041 31.6974 31.8174 31.6726 33.0468 32.1833L33.0465 26.046C33.0465 26.0429 33.0465 26.0397 33.0465 26.0366C33.0683 23.7708 31.9929 21.6102 30.1698 20.2568C29.7368 19.9353 29.6463 19.3236 29.9678 18.8906C30.2894 18.4575 30.9011 18.3671 31.334 18.6886C33.6556 20.412 35.0256 23.1637 34.9996 26.05L35 34.0234ZM18.9923 28.0664C17.5556 28.0664 16.1979 27.7512 14.9573 27.1295C14.5739 26.9374 14.1607 26.8443 13.7498 26.8443C12.5428 26.8443 11.6354 27.8106 11.6354 27.8106C11.4519 27.9785 11.2157 28.0664 10.9764 28.0665C10.8433 28.0665 10.7092 28.0393 10.5827 27.9835C10.2286 27.8273 10 27.4769 10 27.0898L10.0004 19.1169C9.97842 16.6967 10.9092 14.4119 12.6216 12.683C14.3351 10.9528 16.6122 10 19.0332 10C21.4716 10 23.7521 10.9465 25.4544 12.6653C27.162 14.3893 28.0894 16.6823 28.066 19.1217C28.0429 21.5246 27.0874 23.7759 25.3754 25.4608C23.6682 27.1412 21.4046 28.0664 19.0012 28.0664C18.9981 28.0664 18.9952 28.0664 18.9923 28.0664ZM15.8324 25.3834C16.7988 25.8677 17.8623 26.1133 18.9932 26.1133C22.8791 26.1135 26.0758 22.9693 26.113 19.103C26.1314 17.1887 25.4047 15.3906 24.0667 14.0397C22.734 12.6941 20.9464 11.9531 19.0332 11.9531C17.1375 11.9531 15.3532 12.7004 14.0092 14.0574C12.6653 15.4143 11.9352 17.2061 11.9534 19.1029C11.9535 19.1061 11.9532 25.2497 11.9532 25.2497C12.5247 25.0123 13.1361 24.8906 13.7507 24.8906C14.4585 24.8906 15.1708 25.0518 15.8324 25.3834ZM22.8418 17.8613C22.1676 17.8613 21.6211 18.4079 21.6211 19.082C21.6211 19.7562 22.1676 20.3027 22.8418 20.3027C23.516 20.3027 24.0625 19.7562 24.0625 19.082C24.0625 18.4079 23.516 17.8613 22.8418 17.8613ZM18.9844 17.8613C18.3102 17.8613 17.7637 18.4079 17.7637 19.082C17.7637 19.7562 18.3102 20.3027 18.9844 20.3027C19.6585 20.3027 20.2051 19.7562 20.2051 19.082C20.2051 18.4079 19.6586 17.8613 18.9844 17.8613ZM15.127 17.8613C14.4528 17.8613 13.9062 18.4079 13.9062 19.082C13.9062 19.7562 14.4528 20.3027 15.127 20.3027C15.8011 20.3027 16.3477 19.7562 16.3477 19.082C16.3477 18.4079 15.8012 17.8613 15.127 17.8613Z" fill="#D95B23"/>
</svg>
