<svg width="80" height="80" viewBox="0 0 80 80" fill="none" xmlns="http://www.w3.org/2000/svg">
<circle cx="40" cy="40" r="40" fill="#F6F6F6"/>
<g clip-path="url(#clip0)">
<path d="M20.5768 48.4232L12 39.8464L39.8487 12H57L20.5768 48.4232ZM57 37.6966H39.8487L33.424 44.1213L42.0007 52.6981" fill="#42A5F5" fill-opacity="0.8"/>
<path d="M33.424 61.2726L39.8487 67.6973H57L42.0008 52.6981" fill="#0D47A1"/>
<path d="M24.8674 52.7026L33.4307 44.1371L41.994 52.7003L33.4307 61.2659L24.8674 52.7026Z" fill="#42A5F5"/>
<path d="M33.4307 61.2659L41.994 52.7026L43.1894 53.8979L34.6261 62.4612L33.4307 61.2659Z" fill="url(#paint0_linear)"/>
<path d="M33.424 61.2726L46.1496 56.8762L42.0007 52.6958" fill="url(#paint1_linear)"/>
</g>
<defs>
<linearGradient id="paint0_linear" x1="37.714" y1="56.9827" x2="38.9094" y2="58.1781" gradientUnits="userSpaceOnUse">
<stop offset="0.2" stop-opacity="0.15"/>
<stop offset="0.85" stop-color="#616161" stop-opacity="0.01"/>
</linearGradient>
<linearGradient id="paint1_linear" x1="33.427" y1="56.9845" x2="46.1524" y2="56.9845" gradientUnits="userSpaceOnUse">
<stop offset="0.2" stop-opacity="0.55"/>
<stop offset="0.85" stop-color="#616161" stop-opacity="0.01"/>
</linearGradient>
<clipPath id="clip0">
<rect width="45" height="55.6973" fill="white" transform="translate(12 12)"/>
</clipPath>
</defs>
</svg>
