
<svg xmlns="http://www.w3.org/2000/svg" xmlns:xlink="http://www.w3.org/1999/xlink" width="24" height="24" viewBox="0 0 24 24"><defs><path id="prefix__a" d="M11.999 0C5.373 0 0 5.279 0 11.791c0 5.21 3.438 9.629 8.207 11.188.6.109.819-.255.819-.568 0-.28-.01-1.021-.017-2.005-3.337.712-4.042-1.581-4.042-1.581-.546-1.362-1.332-1.725-1.332-1.725-1.09-.731.082-.717.082-.717 1.205.084 1.838 1.216 1.838 1.216 1.07 1.801 2.81 1.281 3.493.98.109-.762.419-1.282.762-1.577-2.665-.297-5.467-1.31-5.467-5.827 0-1.287.468-2.34 1.236-3.164-.124-.298-.536-1.498.118-3.12 0 0 1.007-.318 3.3 1.208.956-.262 1.983-.392 3.003-.397 1.02.005 2.046.135 3.005.397C17.295 4.573 18.3 4.89 18.3 4.89c.655 1.623.243 2.823.12 3.12.77.824 1.233 1.878 1.233 3.165 0 4.53-2.806 5.526-5.478 5.818.43.364.814 1.084.814 2.184 0 1.576-.015 2.847-.015 3.234 0 .315.217.682.825.567C20.565 21.416 24 17 24 11.791 24 5.28 18.627 0 11.999 0"/></defs><g fill="none" fill-rule="evenodd"><mask id="prefix__b" fill="#fff"><use xlink:href="#prefix__a"/></mask><use fill="#161514" xlink:href="#prefix__a"/><g fill="#000" mask="url(#prefix__b)"><path d="M0 0L24 0 24 24 0 24z"/></g></g></svg>