<svg width="45" height="45" viewBox="0 0 45 45" fill="none" xmlns="http://www.w3.org/2000/svg">
<circle cx="22.5" cy="22.5" r="22.5" fill="#FEEFE3"/>
<path d="M20.3027 30.5897C14.6218 30.5897 10 25.9715 10 20.2949C10 14.6183 14.6218 10 20.3027 10C25.9837 10 30.6054 14.6183 30.6054 20.2949C30.6054 25.9715 25.9837 30.5897 20.3027 30.5897ZM20.3027 11.9516C15.6987 11.9516 11.9531 15.6944 11.9531 20.2949C11.9531 24.8954 15.6987 28.6381 20.3027 28.6381C24.9067 28.6381 28.6523 24.8954 28.6523 20.2949C28.6523 15.6944 24.9067 11.9516 20.3027 11.9516ZM34.714 34.7142C35.0953 34.3331 35.0953 33.7152 34.714 33.3342L30.3439 28.9674C29.9625 28.5863 29.3441 28.5863 28.9628 28.9674C28.5814 29.3485 28.5814 29.9664 28.9628 30.3474L33.3329 34.7142C33.5236 34.9048 33.7735 35 34.0235 35C34.2734 35 34.5233 34.9048 34.714 34.7142ZM21.4819 23.0579L25.3411 19.1775C25.7213 18.7952 25.7193 18.1773 25.3368 17.7975C24.9543 17.4176 24.336 17.4194 23.9557 17.8018L20.0957 21.6831C19.8913 21.8891 19.6201 22.0026 19.3321 22.0026C19.0441 22.0026 18.7729 21.8891 18.5685 21.6831L16.6993 19.7992C16.3196 19.4165 15.7013 19.4138 15.3183 19.7933C14.9352 20.1727 14.9326 20.7905 15.3123 21.1733L17.1815 23.0572C17.7556 23.6356 18.5193 23.9542 19.3321 23.9542C20.145 23.9542 20.9087 23.6356 21.4819 23.0579Z" fill="#F88B06"/>
</svg>
