<svg width="188" height="60" viewBox="0 0 188 60" fill="none" xmlns="http://www.w3.org/2000/svg">
<path d="M25.1459 18.8514C18.9011 18.8514 13.8387 23.9185 13.8387 30.169C13.8387 36.4195 18.9011 41.4866 25.1459 41.4866C31.3907 41.4866 36.4531 36.4195 36.4531 30.169C36.4457 23.9216 31.3876 18.8589 25.1459 18.8514Z" fill="#478AFF"/>
<path d="M41.381 19.8548C44.2257 19.8548 46.5317 17.5466 46.5317 14.6994C46.5317 11.8521 44.2257 9.54395 41.381 9.54395C38.5364 9.54395 36.2303 11.8521 36.2303 14.6994C36.2303 17.5466 38.5364 19.8548 41.381 19.8548Z" fill="#478AFF"/>
<path d="M47.7232 19.8818L47.5072 19.4088L47.1696 19.8007C46.3252 20.7598 45.2575 21.4955 44.061 21.9426L43.7235 22.0642L43.8585 22.4021C47.6117 31.4364 44.3927 41.865 36.2023 47.2059C28.0119 52.5468 17.1806 51.2803 10.4407 44.1936C3.70073 37.1069 2.96999 26.2165 8.70264 18.2913C14.4353 10.3662 25.0001 7.66142 33.8305 11.8582L34.1478 12.0102L34.2862 11.6723C34.7906 10.4981 35.5766 9.46646 36.5746 8.66897L36.9796 8.33113L36.5172 8.09126C33.0043 6.26377 29.1016 5.31444 25.1425 5.32429C14.1329 5.32595 4.44106 12.589 1.33936 23.1623C-1.76233 33.7356 2.46804 45.0902 11.7291 51.0491C20.9902 57.008 33.0668 56.1459 41.3893 48.9318C49.7117 41.7177 52.2893 29.8771 47.7198 19.8514L47.7232 19.8818Z" fill="#478AFF"/>
<path d="M67.9547 19.3582H62.723V40.9798H67.9547V19.3582Z" fill="#478AFF"/>
<path d="M124.413 19.3582H119.181V40.9798H124.413V19.3582Z" fill="#478AFF"/>
<path d="M107.101 18.8514C103.422 18.8514 100.58 21.071 99.9287 21.6825L99.5912 19.3582H95.2371V40.9798H100.469V27.8886C100.469 25.3345 103.952 23.2197 106.5 23.2197C109.049 23.2197 110.963 25.6589 110.963 28.5643V40.9798H116.194V29.0812C116.177 23.4123 113.734 18.8514 107.101 18.8514Z" fill="#478AFF"/>
<path d="M138.147 37.0508C134.215 37.0508 131.616 33.9697 131.616 30.169C131.616 26.3683 134.215 23.2873 138.147 23.2873C141.502 23.2873 143.548 26.5406 143.548 26.5406L147.338 24.0035C146.241 22.3143 144.975 21.3008 143.247 20.2535C141.756 19.3478 140.047 18.8633 138.302 18.8514C131.758 18.8514 126.759 23.7704 126.729 30.169C126.759 36.5677 131.758 41.4866 138.302 41.4866C140.04 41.4711 141.741 40.9867 143.227 40.0845C144.955 39.0406 146.221 38.0237 147.318 36.3345L143.527 33.7974C143.527 33.7974 141.502 37.0508 138.147 37.0508Z" fill="#478AFF"/>
<path d="M81.5976 18.8514C78.5991 18.8031 75.7078 19.9671 73.5778 22.08C71.4478 24.1929 70.2589 27.0762 70.2802 30.0778C70.2802 36.2095 74.8639 41.4866 81.6752 41.4866C87.8418 41.4866 92.8946 36.7568 92.8946 30.2095C92.8946 22.7129 87.0183 18.8514 81.5976 18.8514ZM81.6617 23.2974C84.9053 23.2974 87.9768 25.9325 87.9768 30.1791C87.9768 34.3345 84.9188 37.044 81.6482 37.044C78.0535 37.044 75.2351 34.1521 75.2351 30.1453C75.2351 26.2264 78.0332 23.2974 81.6786 23.2974H81.6617Z" fill="#478AFF"/>
</svg>
