<svg xmlns="http://www.w3.org/2000/svg" width="22" height="22" fill="none" viewBox="0 0 22 22">
    <path fill="#478AFF" fill-rule="evenodd" d="M19.189 7.276l-.078-.172-.123.142c-.306.348-.693.614-1.127.776l-.123.045.05.122c1.36 3.274.193 7.053-2.778 8.989-2.97 1.935-6.899 1.476-9.344-1.092-2.444-2.568-2.71-6.515-.63-9.387 2.08-2.872 5.911-3.852 9.114-2.331l.115.055.05-.122c.183-.426.468-.8.83-1.089l.147-.122-.168-.087C13.85 2.34 12.434 1.996 11 2 7.006 2 3.49 4.633 2.365 8.464c-1.125 3.832.41 7.947 3.769 10.107 3.359 2.16 7.74 1.847 10.758-.768 3.018-2.614 3.953-6.905 2.296-10.538l.001.01zM11 6.902c-2.265 0-4.101 1.836-4.101 4.102 0 2.265 1.836 4.101 4.101 4.101 2.265 0 4.101-1.836 4.101-4.101-.002-2.264-1.837-4.1-4.1-4.102zm7.757-1.505c0 1.032-.837 1.869-1.868 1.869-1.032 0-1.868-.837-1.868-1.869 0-1.031.836-1.868 1.868-1.868 1.031 0 1.868.837 1.868 1.869z" clip-rule="evenodd"/>
</svg>
