<svg xmlns="http://www.w3.org/2000/svg" width="22" height="22" fill="none" viewBox="0 0 22 22">
    <path fill="#3174B9" fill-rule="evenodd" d="M8.483 14.642c-1.242-.122-.429-.692-.429-.692-3.214 1.011 1.79 2.16 6.282.913-.477-.16-.78-.451-.78-.451-2.197.4-3.465.388-5.073.23zm.542 1.813c-1.242-.135-.517-.535-.517-.535-2.918.773 1.776 2.37 5.493.86-.61-.224-1.046-.483-1.046-.483-1.657.298-2.426.321-3.93.158z" clip-rule="evenodd"/>
    <path fill="#CA3132" d="M11.882 10.607c.916 1-.24 1.899-.24 1.899s2.325-1.138 1.257-2.564c-.997-1.328-1.762-1.989 2.378-4.265 0 0-6.498 1.538-3.395 4.93z"/>
    <path fill="#3174B9" fill-rule="evenodd" d="M15.812 11.974c1.15-.227 2.796 1.46-.766 3.214-.015.039-.064.082-.07.088 4.755-1.185 3.007-4.178.733-3.42-.2.066-.305.222-.305.222s.127-.048.408-.104zm-6.955-.066s-3.45.777-1.221 1.06c.941.119 2.816.091 4.564-.048 1.428-.113 2.86-.357 2.86-.357s-.502.205-.867.44c-3.504.875-10.271.468-8.323-.426 1.648-.755 2.987-.67 2.987-.67zm7.94 5.47s.537.42-.59.744c-2.145.616-8.928.802-10.812.024-.677-.28.593-.667.992-.748.417-.086.655-.07.655-.07-.754-.503-4.869.987-2.09 1.415 7.576 1.165 13.81-.524 11.845-1.365z" clip-rule="evenodd"/>
    <path fill="#CA3132" d="M12.9 2s1.971 1.871-1.872 4.747c-3.081 2.309-.702 3.624 0 5.128-1.8-1.539-3.12-2.894-2.234-4.155 1.3-1.85 4.901-2.748 4.105-5.72z"/>
    <path fill="#3174B9" d="M9.208 19.944c3.418.207 8.667-.116 8.792-1.65 0 0-.239.582-2.825 1.043-2.918.52-6.517.46-8.651.126 0 0 .437.343 2.684.48z"/>
</svg>
