<svg xmlns="http://www.w3.org/2000/svg" width="22" height="22" fill="none" viewBox="0 0 22 22">
    <path fill="#D4B830" fill-rule="evenodd" d="M4.485 18.184L3 2l16 .006-1.473 16.166L10.987 20l-6.502-1.816zm11.838-.883l1.242-13.862h-6.553l.05 15.288 5.26-1.426zM8.81 5.47h1.59v10.613L5.709 14.83l-.006-1.897 3.089.834.019-8.295z" clip-rule="evenodd"/>
    <path fill="#fff" d="M5.708 14.83l-.006-1.897s1.972.55 3.089.834l.019-8.29h1.59v10.607L5.709 14.83z" opacity=".986"/>
    <path fill="#FDD83C" d="M11.012 3.433h6.553l-1.242 13.861-5.31 1.427V3.433z"/>
    <path fill="#fff" d="M15.986 14.972l.43-5.183-3.182.352V7.374l3.395-.012.137-1.89-5.123.024.068 6.881 3.096-.525-.044 1.532-3.12.822.031 1.878 4.312-1.112z"/>
</svg>
