<svg width="60" height="60" viewBox="0 0 60 60" fill="none" xmlns="http://www.w3.org/2000/svg">
<path d="M60 0H0V60H60V0Z" fill="#F7DF1E"/>
<path d="M40.1352 46.765C41.3426 48.7295 42.9134 50.1735 45.6917 50.1735C48.0256 50.1735 49.5165 49.0111 49.5165 47.405C49.5165 45.4802 47.9846 44.7985 45.4157 43.6788L44.0076 43.0767C39.943 41.3511 37.2428 39.1893 37.2428 34.6193C37.2428 30.4095 40.4616 27.2048 45.4919 27.2048C49.0731 27.2048 51.6477 28.4468 53.503 31.699L49.1169 34.5055C48.1511 32.7799 47.1093 32.1 45.4919 32.1C43.842 32.1 42.7964 33.143 42.7964 34.5055C42.7964 36.1894 43.843 36.8711 46.2597 37.914L47.6678 38.5152C52.4536 40.5603 55.1557 42.6453 55.1557 47.3329C55.1557 52.3865 51.172 55.1551 45.822 55.1551C40.591 55.1551 37.2114 52.671 35.5578 49.415L40.1352 46.765ZM20.2376 47.2514C21.1225 48.8158 21.9274 50.1385 23.8626 50.1385C25.7132 50.1385 26.8806 49.4169 26.8806 46.6114V27.5252H32.5132V46.6872C32.5132 52.4993 29.0937 55.1447 24.1024 55.1447C19.5925 55.1447 16.9808 52.8189 15.6526 50.0176L20.2376 47.2514Z" fill="black"/>
</svg>
