<svg width="80" height="80" viewBox="0 0 80 80" fill="none" xmlns="http://www.w3.org/2000/svg">
<rect width="80" height="80" rx="5" fill="#F6F6F6"/>
<path d="M60 20H20V60H60V20Z" fill="#F7DF1E"/>
<path d="M46.7568 51.1766C47.5617 52.4863 48.609 53.449 50.4611 53.449C52.017 53.449 53.011 52.6741 53.011 51.6033C53.011 50.3202 51.9898 49.8657 50.2772 49.1192L49.3384 48.7178C46.6287 47.5674 44.8285 46.1262 44.8285 43.0795C44.8285 40.273 46.9744 38.1365 50.3279 38.1365C52.7154 38.1365 54.4318 38.9646 55.6687 41.1326L52.7446 43.0037C52.1008 41.8532 51.4062 41.4 50.3279 41.4C49.228 41.4 48.5309 42.0953 48.5309 43.0037C48.5309 44.1263 49.2287 44.5807 50.8398 45.276L51.7785 45.6768C54.9691 47.0402 56.7705 48.4302 56.7705 51.5553C56.7705 54.9243 54.1147 56.7701 50.548 56.7701C47.0606 56.7701 44.8076 55.114 43.7052 52.9434L46.7568 51.1766ZM33.4917 51.5009C34.0816 52.5439 34.6183 53.4256 35.9084 53.4256C37.1421 53.4256 37.9204 52.9446 37.9204 51.0742V38.3502H41.6754V51.1248C41.6754 54.9996 39.3958 56.7631 36.0683 56.7631C33.0617 56.7631 31.3205 55.2126 30.4351 53.345L33.4917 51.5009Z" fill="black"/>
</svg>
