<svg id="Layer_1" data-name="Layer 1" xmlns="http://www.w3.org/2000/svg" viewBox="0 0 600 225"><defs><style>.cls-1{fill:#000000;}</style></defs><title>objectiveC</title><path class="cls-1" d="M162.1,117.5c.22,24.22,21.24,32.27,21.47,32.38a87.84,87.84,0,0,1-11.07,22.75c-6.67,9.75-13.59,19.46-24.49,19.66-10.72.2-14.16-6.35-26.41-6.35s-16.07,6.15-26.21,6.55c-10.53.4-18.54-10.54-25.27-20.25C56.38,152.37,45.88,116.11,60,91.62,67,79.47,79.5,71.77,93.09,71.57c10.33-.2,20.09,7,26.41,7s18.16-8.59,30.63-7.33c5.21.22,19.86,2.11,29.26,15.87-.76.47-17.47,10.2-17.29,30.44M142,58.05c5.59-6.77,9.35-16.18,8.33-25.55-8.06.32-17.8,5.37-23.57,12.13-5.18,6-9.72,15.56-8.49,24.75,9,.69,18.15-4.57,23.73-11.33"/><path class="cls-1" d="M267.35,130.41a26.71,26.71,0,0,1-2.21,11.2,16.84,16.84,0,0,1-6.3,7.43,17.29,17.29,0,0,1-9.46,2.6,16.41,16.41,0,0,1-13.07-5.79q-5-5.79-5-15.64v-4.75a26.52,26.52,0,0,1,2.24-11.19,16.63,16.63,0,0,1,15.76-10.11,17.29,17.29,0,0,1,9.41,2.57A16.87,16.87,0,0,1,265,114a26.26,26.26,0,0,1,2.32,10.88Zm-3.91-5q0-8.34-3.77-13.08a13.6,13.6,0,0,0-20.62,0q-3.83,4.74-3.82,13.25v4.83q0,8.22,3.81,13a13.59,13.59,0,0,0,20.69.07q3.72-4.75,3.71-13.22Z"/><path class="cls-1" d="M303.94,134.18c0,5.36-1.18,9.6-3.55,12.75a11.37,11.37,0,0,1-9.56,4.71q-7.17,0-10.85-5.33l-.16,4.69h-3.55V102.25H280v19.4A11.94,11.94,0,0,1,290.77,116a11.46,11.46,0,0,1,9.63,4.65q3.54,4.65,3.54,12.93Zm-3.81-.66q0-6.8-2.63-10.49a8.58,8.58,0,0,0-7.43-3.7,10.52,10.52,0,0,0-6.19,1.79,11,11,0,0,0-3.84,5.26v15.48q2.86,6.48,10.1,6.48a8.5,8.5,0,0,0,7.34-3.72Q300.14,140.92,300.13,133.52Z"/><path class="cls-1" d="M316.42,116.66V155.1c0,3.17-.77,5.59-2.29,7.27s-3.77,2.5-6.73,2.5a9.74,9.74,0,0,1-3.33-.59l.06-3.12a10.25,10.25,0,0,0,2.86.41q5.65,0,5.65-6.51v-38.4Zm-1.88-12.47a2.47,2.47,0,0,1,2.64,2.56,2.5,2.5,0,0,1-.7,1.79,2.55,2.55,0,0,1-1.94.73,2.46,2.46,0,0,1-1.89-.73,2.53,2.53,0,0,1-.68-1.79,2.6,2.6,0,0,1,.68-1.82A2.47,2.47,0,0,1,314.54,104.19Z"/><path class="cls-1" d="M340.44,151.64a14.9,14.9,0,0,1-7.92-2.16,14.68,14.68,0,0,1-5.5-6,18.67,18.67,0,0,1-2-8.65v-1.37a20.23,20.23,0,0,1,1.92-8.92,15.24,15.24,0,0,1,5.35-6.23,13.2,13.2,0,0,1,7.42-2.27,12.38,12.38,0,0,1,9.92,4.27q3.66,4.26,3.67,11.66v2.13H328.82v.73a14.37,14.37,0,0,0,3.35,9.72,10.64,10.64,0,0,0,8.43,3.89,12.4,12.4,0,0,0,5.38-1.11,12,12,0,0,0,4.24-3.55l2.38,1.81Q348.4,151.64,340.44,151.64Zm-.7-32.37a9.49,9.49,0,0,0-7.22,3.14,14.53,14.53,0,0,0-3.57,8.44h20.6v-.41a12.6,12.6,0,0,0-2.83-8.06A8.72,8.72,0,0,0,339.74,119.27Z"/><path class="cls-1" d="M373.42,148.43a10,10,0,0,0,6.65-2.23,7.94,7.94,0,0,0,2.9-5.8h3.65a10.73,10.73,0,0,1-2,5.73,12.22,12.22,0,0,1-4.81,4.05,14.52,14.52,0,0,1-6.42,1.46,13.26,13.26,0,0,1-10.71-4.7q-4-4.69-4-12.63v-1.14a21.51,21.51,0,0,1,1.78-9,13.68,13.68,0,0,1,5.1-6,14.1,14.1,0,0,1,7.76-2.12,13.24,13.24,0,0,1,9.31,3.36,12.31,12.31,0,0,1,3.92,8.86H383a9.17,9.17,0,0,0-9.58-9,9.48,9.48,0,0,0-8,3.71c-1.89,2.48-2.84,5.94-2.84,10.41v1.11q0,6.57,2.84,10.25A9.54,9.54,0,0,0,373.42,148.43Z"/><path class="cls-1" d="M400.11,107.87v8.79h7.11v3.11h-7.11v22.91a7.15,7.15,0,0,0,1,4.26,4,4,0,0,0,3.45,1.4,23.9,23.9,0,0,0,3.07-.32l.16,3.08a12.28,12.28,0,0,1-4.06.54c-2.6,0-4.5-.76-5.68-2.27s-1.78-3.74-1.78-6.68V119.77H390v-3.11h6.31v-8.79Z"/><path class="cls-1" d="M414.87,106.75a2.53,2.53,0,0,1,.7-1.82,2.49,2.49,0,0,1,1.9-.74,2.57,2.57,0,0,1,1.92.74,2.5,2.5,0,0,1,.71,1.82,2.43,2.43,0,0,1-.71,1.79,2.56,2.56,0,0,1-1.92.73,2.49,2.49,0,0,1-1.9-.73A2.46,2.46,0,0,1,414.87,106.75ZM419.34,151h-3.81V116.66h3.81Z"/><path class="cls-1" d="M440.35,145.77l10.45-29.11h3.9L441.88,151H438.8l-12.89-34.34h3.91Z"/><path class="cls-1" d="M474.22,151.64a14.9,14.9,0,0,1-7.92-2.16,14.7,14.7,0,0,1-5.51-6,18.79,18.79,0,0,1-2-8.65v-1.37a20.23,20.23,0,0,1,1.92-8.92,15.31,15.31,0,0,1,5.35-6.23,13.23,13.23,0,0,1,7.43-2.27,12.4,12.4,0,0,1,9.92,4.27q3.66,4.26,3.66,11.66v2.13H462.6v.73a14.37,14.37,0,0,0,3.35,9.72,10.63,10.63,0,0,0,8.43,3.89,12.4,12.4,0,0,0,5.38-1.11,11.93,11.93,0,0,0,4.23-3.55l2.38,1.81Q482.18,151.64,474.22,151.64Zm-.7-32.37a9.47,9.47,0,0,0-7.22,3.14,14.47,14.47,0,0,0-3.57,8.44h20.6v-.41a12.6,12.6,0,0,0-2.83-8.06A8.73,8.73,0,0,0,473.52,119.27Z"/><path class="cls-1" d="M506.31,132.21H491.1V129h15.21Z"/><path class="cls-1" d="M546.71,136.59q-.8,7.31-5.22,11.18c-3,2.58-6.89,3.87-11.79,3.87a16.36,16.36,0,0,1-9.1-2.57,16.81,16.81,0,0,1-6.11-7.29A25.88,25.88,0,0,1,512.3,131v-6a26.21,26.21,0,0,1,2.16-10.92,16.58,16.58,0,0,1,6.21-7.34,16.84,16.84,0,0,1,9.31-2.59q7.42,0,11.73,4c2.87,2.66,4.53,6.36,5,11.07h-3.94q-1.46-11.78-12.79-11.77a12.12,12.12,0,0,0-10,4.7q-3.74,4.7-3.73,13v5.65q0,8,3.63,12.77a11.72,11.72,0,0,0,9.83,4.77q6.12,0,9.23-2.94t3.84-8.81Z"/></svg>