<svg width="80" height="80" viewBox="0 0 80 80" fill="none" xmlns="http://www.w3.org/2000/svg">
<rect width="80" height="80" rx="5" fill="#F6F6F6"/>
<path d="M65.2622 40.4684C65.2622 37.1264 61.0096 33.9592 54.4894 31.9952C55.9941 25.4552 55.3254 20.252 52.3788 18.5861C51.6996 18.1954 50.9055 18.0103 50.0382 18.0103V20.3034C50.5189 20.3034 50.9055 20.3959 51.2294 20.5708C52.6504 21.3728 53.2669 24.4269 52.7863 28.355C52.6713 29.3216 52.4833 30.3396 52.2534 31.3782C50.2054 30.8846 47.9693 30.5041 45.6183 30.2573C44.2077 28.355 42.7449 26.6274 41.2716 25.1158C44.6779 22.0001 47.8753 20.2931 50.0487 20.2931V18C47.1752 18 43.4136 20.0155 39.6102 23.5117C35.8068 20.036 32.0452 18.0411 29.1718 18.0411V20.3342C31.3347 20.3342 34.5425 22.0309 37.9489 25.1261C36.486 26.6377 35.0232 28.355 33.6335 30.2573C31.272 30.5041 29.036 30.8846 26.988 31.3885C26.7476 30.3602 26.57 29.3627 26.4446 28.4064C25.9535 24.4783 26.5596 21.4242 27.9702 20.6119C28.2836 20.4268 28.6911 20.3445 29.1718 20.3445V18.0514C28.2941 18.0514 27.5 18.2365 26.8103 18.6273C23.8742 20.2931 23.2159 25.486 24.731 32.0055C18.2318 33.9798 14 37.1367 14 40.4684C14 43.8104 18.2527 46.9775 24.7728 48.9416C23.2682 55.4816 23.9369 60.6848 26.8835 62.3506C27.5627 62.7414 28.3568 62.9265 29.2345 62.9265C32.1079 62.9265 35.8695 60.911 39.6729 57.4148C43.4763 60.8904 47.2379 62.8853 50.1114 62.8853C50.9891 62.8853 51.7832 62.7002 52.4728 62.3095C55.4089 60.6436 56.0672 55.4507 54.5521 48.9313C61.0305 46.9672 65.2622 43.8001 65.2622 40.4684ZM51.6578 33.6096C51.2712 34.9361 50.7905 36.3038 50.2472 37.6714C49.8188 36.8488 49.3695 36.0261 48.8784 35.2035C48.3977 34.3808 47.8857 33.5788 47.3738 32.7973C48.8575 33.0132 50.289 33.2806 51.6578 33.6096ZM46.8722 44.561C46.0572 45.9492 45.2213 47.2654 44.354 48.4891C42.7971 48.6228 41.2194 48.6948 39.6311 48.6948C38.0533 48.6948 36.4756 48.6228 34.9291 48.4994C34.0619 47.2757 33.2155 45.9698 32.4005 44.5919C31.6064 43.2448 30.8854 41.8771 30.2271 40.4992C30.875 39.1213 31.6064 37.7434 32.39 36.3963C33.2051 35.0081 34.041 33.6919 34.9082 32.4682C36.4651 32.3345 38.0429 32.2625 39.6311 32.2625C41.2089 32.2625 42.7867 32.3345 44.3331 32.4579C45.2004 33.6816 46.0467 34.9875 46.8618 36.3655C47.6559 37.7125 48.3768 39.0802 49.0351 40.4581C48.3768 41.836 47.6559 43.2139 46.8722 44.561ZM50.2472 43.2242C50.8114 44.6021 51.2921 45.9801 51.6891 47.3169C50.3203 47.6459 48.8784 47.9236 47.3842 48.1395C47.8962 47.3477 48.4082 46.5354 48.8888 45.7024C49.3695 44.8798 49.8188 44.0469 50.2472 43.2242ZM39.652 54.1962C38.6803 53.209 37.7085 52.1087 36.7472 50.9056C37.6876 50.9468 38.6489 50.9776 39.6207 50.9776C40.6029 50.9776 41.5746 50.957 42.5255 50.9056C41.5851 52.1087 40.6133 53.209 39.652 54.1962ZM31.878 48.1395C30.3943 47.9236 28.9628 47.6562 27.594 47.3271C27.9806 46.0006 28.4613 44.633 29.0046 43.2654C29.433 44.088 29.8823 44.9106 30.3734 45.7333C30.8645 46.5559 31.3661 47.358 31.878 48.1395ZM39.5998 26.7406C40.5715 27.7277 41.5433 28.828 42.5046 30.0311C41.5642 29.99 40.6029 29.9591 39.6311 29.9591C38.6489 29.9591 37.6772 29.9797 36.7263 30.0311C37.6667 28.828 38.6385 27.7277 39.5998 26.7406ZM31.8676 32.7973C31.3556 33.589 30.8436 34.4014 30.363 35.2343C29.8823 36.057 29.433 36.8796 29.0046 37.7022C28.4404 36.3243 27.9597 34.9464 27.5627 33.6096C28.9315 33.2908 30.3734 33.0132 31.8676 32.7973ZM22.4114 45.6716C18.7124 44.1188 16.3197 42.0828 16.3197 40.4684C16.3197 38.8539 18.7124 36.8076 22.4114 35.2652C23.31 34.8847 24.2922 34.5454 25.3057 34.2266C25.9013 36.2421 26.685 38.3398 27.6567 40.4889C26.6954 42.6278 25.9222 44.7153 25.337 46.7204C24.3026 46.4017 23.3204 46.0521 22.4114 45.6716ZM28.0329 60.366C26.6118 59.5639 25.9953 56.5099 26.476 52.5818C26.5909 51.6152 26.779 50.5971 27.0089 49.5586C29.0568 50.0521 31.2929 50.4326 33.6439 50.6794C35.0545 52.5818 36.5174 54.3093 37.9907 55.8209C34.5843 58.9367 31.387 60.6436 29.2136 60.6436C28.7434 60.6334 28.3463 60.5408 28.0329 60.366ZM52.8176 52.5303C53.3087 56.4585 52.7027 59.5125 51.2921 60.3249C50.9786 60.51 50.5711 60.5922 50.0905 60.5922C47.9275 60.5922 44.7197 58.8955 41.3134 55.8003C42.7762 54.2887 44.2391 52.5715 45.6288 50.6691C47.9902 50.4223 50.2263 50.0419 52.2743 49.538C52.5146 50.5766 52.7027 51.574 52.8176 52.5303ZM53.9148 34.2163C54.9492 34.5351 55.9314 34.8847 56.8509 35.2652C60.5498 36.8179 62.9426 38.8539 62.9426 40.4684C62.9321 42.0828 60.5394 44.1291 56.8404 45.6716C55.9418 46.0521 54.9596 46.3914 53.9461 46.7102C53.3505 44.6947 52.5669 42.597 51.5951 40.4478C52.5564 38.3089 53.3296 36.2215 53.9148 34.2163ZM39.6311 35.8554C42.335 35.8554 44.527 37.9184 44.527 40.4632C44.527 43.0081 42.335 45.0711 39.6311 45.0711C36.9272 45.0711 34.7353 43.0081 34.7353 40.4632C34.7353 37.9184 36.9272 35.8554 39.6311 35.8554Z" fill="#61DAFB"/>
</svg>
