<svg width="118" height="45" viewBox="0 0 118 45" fill="none" xmlns="http://www.w3.org/2000/svg">
<path d="M51.2622 22.4684C51.2622 19.1264 47.0096 15.9592 40.4894 13.9952C41.9941 7.45518 41.3254 2.25198 38.3788 0.586132C37.6996 0.195377 36.9055 0.0102831 36.0382 0.0102831V2.30339C36.5189 2.30339 36.9055 2.39594 37.2294 2.57075C38.6504 3.37283 39.2669 6.42688 38.7863 10.355C38.6713 11.3216 38.4833 12.3396 38.2534 13.3782C36.2054 12.8846 33.9693 12.5041 31.6183 12.2573C30.2077 10.355 28.7449 8.62745 27.2716 7.11584C30.6779 4.00009 33.8753 2.29311 36.0487 2.29311V0C33.1752 0 29.4136 2.01547 25.6102 5.51169C21.8068 2.03604 18.0452 0.0411321 15.1718 0.0411321V2.33424C17.3347 2.33424 20.5425 4.03094 23.9489 7.12613C22.486 8.63773 21.0232 10.355 19.6335 12.2573C17.272 12.5041 15.036 12.8846 12.988 13.3885C12.7476 12.3602 12.57 11.3627 12.4446 10.4064C11.9535 6.4783 12.5596 3.42424 13.9702 2.61188C14.2836 2.42679 14.6911 2.34453 15.1718 2.34453V0.0514151C14.2941 0.0514151 13.5 0.236509 12.8103 0.627264C9.8742 2.29311 9.21592 7.48603 10.731 14.0055C4.2318 15.9798 0 19.1367 0 22.4684C0 25.8104 4.2527 28.9775 10.7728 30.9416C9.26816 37.4816 9.93689 42.6848 12.8835 44.3506C13.5627 44.7414 14.3568 44.9265 15.2345 44.9265C18.1079 44.9265 21.8695 42.911 25.6729 39.4148C29.4763 42.8904 33.2379 44.8853 36.1114 44.8853C36.9891 44.8853 37.7832 44.7002 38.4728 44.3095C41.4089 42.6436 42.0672 37.4507 40.5521 30.9313C47.0305 28.9672 51.2622 25.8001 51.2622 22.4684ZM37.6578 15.6096C37.2712 16.9361 36.7905 18.3038 36.2472 19.6714C35.8188 18.8488 35.3695 18.0261 34.8784 17.2035C34.3977 16.3808 33.8857 15.5788 33.3738 14.7973C34.8575 15.0132 36.289 15.2806 37.6578 15.6096ZM32.8722 26.561C32.0572 27.9492 31.2213 29.2654 30.354 30.4891C28.7971 30.6228 27.2194 30.6948 25.6311 30.6948C24.0533 30.6948 22.4756 30.6228 20.9291 30.4994C20.0619 29.2757 19.2155 27.9698 18.4005 26.5919C17.6064 25.2448 16.8854 23.8771 16.2271 22.4992C16.875 21.1213 17.6064 19.7434 18.39 18.3963C19.2051 17.0081 20.041 15.6919 20.9082 14.4682C22.4651 14.3345 24.0429 14.2625 25.6311 14.2625C27.2089 14.2625 28.7867 14.3345 30.3331 14.4579C31.2004 15.6816 32.0467 16.9875 32.8618 18.3655C33.6559 19.7125 34.3768 21.0802 35.0351 22.4581C34.3768 23.836 33.6559 25.2139 32.8722 26.561ZM36.2472 25.2242C36.8114 26.6021 37.2921 27.9801 37.6891 29.3169C36.3203 29.6459 34.8784 29.9236 33.3842 30.1395C33.8962 29.3477 34.4082 28.5354 34.8888 27.7024C35.3695 26.8798 35.8188 26.0469 36.2472 25.2242ZM25.652 36.1962C24.6803 35.209 23.7085 34.1087 22.7472 32.9056C23.6876 32.9468 24.6489 32.9776 25.6207 32.9776C26.6029 32.9776 27.5746 32.957 28.5255 32.9056C27.5851 34.1087 26.6133 35.209 25.652 36.1962ZM17.878 30.1395C16.3943 29.9236 14.9628 29.6562 13.594 29.3271C13.9806 28.0006 14.4613 26.633 15.0046 25.2654C15.433 26.088 15.8823 26.9106 16.3734 27.7333C16.8645 28.5559 17.3661 29.358 17.878 30.1395ZM25.5998 8.74056C26.5715 9.72773 27.5433 10.828 28.5046 12.0311C27.5642 11.99 26.6029 11.9591 25.6311 11.9591C24.6489 11.9591 23.6772 11.9797 22.7263 12.0311C23.6667 10.828 24.6385 9.72773 25.5998 8.74056ZM17.8676 14.7973C17.3556 15.589 16.8436 16.4014 16.363 17.2343C15.8823 18.057 15.433 18.8796 15.0046 19.7022C14.4404 18.3243 13.9597 16.9464 13.5627 15.6096C14.9315 15.2908 16.3734 15.0132 17.8676 14.7973ZM8.41136 27.6716C4.71245 26.1188 2.31965 24.0828 2.31965 22.4684C2.31965 20.8539 4.71245 18.8076 8.41136 17.2652C9.30996 16.8847 10.2922 16.5454 11.3057 16.2266C11.9013 18.2421 12.685 20.3398 13.6567 22.4889C12.6954 24.6278 11.9222 26.7153 11.337 28.7204C10.3026 28.4017 9.32041 28.0521 8.41136 27.6716ZM14.0329 42.366C12.6118 41.5639 11.9953 38.5099 12.476 34.5818C12.5909 33.6152 12.779 32.5971 13.0089 31.5586C15.0568 32.0521 17.2929 32.4326 19.6439 32.6794C21.0545 34.5818 22.5174 36.3093 23.9907 37.8209C20.5843 40.9367 17.387 42.6436 15.2136 42.6436C14.7434 42.6334 14.3463 42.5408 14.0329 42.366ZM38.8176 34.5303C39.3087 38.4585 38.7027 41.5125 37.2921 42.3249C36.9786 42.51 36.5711 42.5922 36.0905 42.5922C33.9275 42.5922 30.7197 40.8955 27.3134 37.8003C28.7762 36.2887 30.2391 34.5715 31.6288 32.6691C33.9902 32.4223 36.2263 32.0419 38.2743 31.538C38.5146 32.5766 38.7027 33.574 38.8176 34.5303ZM39.9148 16.2163C40.9492 16.5351 41.9314 16.8847 42.8509 17.2652C46.5498 18.8179 48.9426 20.8539 48.9426 22.4684C48.9321 24.0828 46.5394 26.1291 42.8404 27.6716C41.9418 28.0521 40.9596 28.3914 39.9461 28.7102C39.3505 26.6947 38.5669 24.597 37.5951 22.4478C38.5564 20.3089 39.3296 18.2215 39.9148 16.2163ZM25.6311 17.8554C28.335 17.8554 30.527 19.9184 30.527 22.4632C30.527 25.0081 28.335 27.0711 25.6311 27.0711C22.9272 27.0711 20.7353 25.0081 20.7353 22.4632C20.7353 19.9184 22.9272 17.8554 25.6311 17.8554Z" fill="#61DAFB"/>
<path d="M64.661 16.5611V21.3062H67.4931C69.1176 21.3062 70.0687 20.4299 70.0687 18.9444C70.0687 17.4802 69.0641 16.5611 67.4611 16.5611H64.661ZM64.661 23.7856V29.375H61.4335V13.9535H67.9099C71.2978 13.9535 73.3818 15.8344 73.3818 18.9016C73.3818 20.868 72.3558 22.578 70.5817 23.2833L73.8306 29.375H70.1756L67.3008 23.7856H64.661ZM80.0077 19.7138C78.5649 19.7138 77.5496 20.7184 77.4427 22.2467H82.4657C82.4016 20.6864 81.4611 19.7138 80.0077 19.7138ZM82.5298 26.0192H85.426C84.9665 28.2315 82.9253 29.6315 80.0397 29.6315C76.4488 29.6315 74.3328 27.3658 74.3328 23.5398C74.3328 19.7031 76.4916 17.3306 79.997 17.3306C83.4703 17.3306 85.5222 19.5428 85.5222 23.2833V24.2345H77.4321V24.3948C77.4748 26.1475 78.5008 27.2376 80.1252 27.2376C81.3542 27.2376 82.1985 26.7994 82.5298 26.0192ZM91.2825 27.2162C92.7252 27.2162 93.8153 26.2971 93.8153 25.1002V24.2345L91.4321 24.3841C90.0962 24.4803 89.4443 24.9612 89.4443 25.8055C89.4443 26.6818 90.2031 27.2162 91.2825 27.2162ZM90.2565 29.5567C87.9908 29.5567 86.3985 28.1674 86.3985 26.0086C86.3985 23.8711 88.0336 22.6314 90.9619 22.4604L93.8153 22.2894V21.3276C93.8153 20.3444 93.11 19.7886 91.8275 19.7886C90.7054 19.7886 89.9573 20.1734 89.7008 20.8787H86.8366C87.0397 18.6986 89.0382 17.3306 91.9985 17.3306C95.1192 17.3306 96.8825 18.8054 96.8825 21.3276V29.375H93.8688V27.8361H93.6764C93.0672 28.9155 91.7848 29.5567 90.2565 29.5567ZM109.333 21.7444H106.426C106.212 20.6222 105.411 19.8848 104.086 19.8848C102.408 19.8848 101.467 21.1352 101.467 23.4543C101.467 25.8055 102.418 27.0773 104.086 27.0773C105.357 27.0773 106.191 26.4574 106.426 25.2925H109.333C109.076 27.9322 107.153 29.6315 104.086 29.6315C100.409 29.6315 98.3252 27.4086 98.3252 23.4543C98.3252 19.5428 100.398 17.3306 104.086 17.3306C107.206 17.3306 109.076 19.0619 109.333 21.7444ZM111.716 14.7871H114.826V17.7047H117.273V20.152H114.826V25.4528C114.826 26.4788 115.296 26.949 116.354 26.949C116.76 26.949 116.974 26.9383 117.273 26.9063V29.2788C116.889 29.3536 116.312 29.4178 115.713 29.4178C112.849 29.4178 111.716 28.488 111.716 26.1902V20.152H109.878V17.7047H111.716V14.7871Z" fill="#48C0E1"/>
</svg>
