<svg width="188" height="60" viewBox="0 0 188 60" fill="none" xmlns="http://www.w3.org/2000/svg">
<path d="M51.4927 30.0444C51.4927 26.7024 47.24 23.5352 40.7199 21.5712C42.2245 15.0312 41.5558 9.82796 38.6092 8.16211C37.93 7.77136 37.1359 7.58626 36.2686 7.58626V9.87938C36.7493 9.87938 37.1359 9.97192 37.4598 10.1467C38.8809 10.9488 39.4974 14.0029 39.0167 17.931C38.9018 18.8976 38.7137 19.9156 38.4838 20.9542C36.4358 20.4606 34.1998 20.0801 31.8488 19.8333C30.4382 17.931 28.9753 16.2034 27.502 14.6918C30.9084 11.5761 34.1057 9.86909 36.2791 9.86909V7.57598C33.4056 7.57598 29.644 9.59145 25.8407 13.0877C22.0373 9.61202 18.2757 7.61711 15.4022 7.61711V9.91022C17.5651 9.91022 20.7729 11.6069 24.1793 14.7021C22.7164 16.2137 21.2536 17.931 19.8639 19.8333C17.5024 20.0801 15.2664 20.4606 13.2184 20.9645C12.9781 19.9362 12.8004 18.9387 12.675 17.9824C12.184 14.0543 12.79 11.0002 14.2006 10.1879C14.5141 10.0028 14.9216 9.92051 15.4022 9.92051V7.6274C14.5245 7.6274 13.7304 7.81249 13.0408 8.20324C10.1046 9.86909 9.44634 15.062 10.9614 21.5814C4.46222 23.5558 0.230423 26.7127 0.230423 30.0444C0.230423 33.3863 4.48312 36.5535 11.0032 38.5176C9.49859 45.0576 10.1673 50.2608 13.1139 51.9266C13.7931 52.3174 14.5872 52.5025 15.4649 52.5025C18.3383 52.5025 22.0999 50.487 25.9033 46.9908C29.7067 50.4664 33.4683 52.4613 36.3418 52.4613C37.2195 52.4613 38.0136 52.2762 38.7032 51.8855C41.6394 50.2196 42.2977 45.0267 40.7826 38.5073C47.2609 36.5432 51.4927 33.3761 51.4927 30.0444ZM37.8882 23.1856C37.5016 24.5121 37.021 25.8797 36.4776 27.2474C36.0492 26.4247 35.5999 25.6021 35.1088 24.7795C34.6282 23.9568 34.1162 23.1547 33.6042 22.3732C35.0879 22.5892 36.5194 22.8565 37.8882 23.1856ZM33.1026 34.137C32.2876 35.5252 31.4517 36.8414 30.5844 38.0651C29.0276 38.1988 27.4498 38.2708 25.8615 38.2708C24.2838 38.2708 22.706 38.1988 21.1595 38.0754C20.2923 36.8517 19.4459 35.5458 18.6309 34.1678C17.8368 32.8208 17.1158 31.4531 16.4575 30.0752C17.1054 28.6973 17.8368 27.3194 18.6205 25.9723C19.4355 24.5841 20.2714 23.2679 21.1386 22.0442C22.6955 21.9105 24.2733 21.8385 25.8615 21.8385C27.4393 21.8385 29.0171 21.9105 30.5635 22.0339C31.4308 23.2576 32.2772 24.5635 33.0922 25.9414C33.8863 27.2885 34.6073 28.6562 35.2656 30.0341C34.6073 31.412 33.8863 32.7899 33.1026 34.137ZM36.4776 32.8002C37.0419 34.1781 37.5225 35.5561 37.9196 36.8928C36.5508 37.2219 35.1088 37.4995 33.6146 37.7155C34.1266 36.9237 34.6386 36.1113 35.1193 35.2784C35.5999 34.4558 36.0492 33.6228 36.4776 32.8002ZM25.8824 43.7722C24.9107 42.785 23.939 41.6847 22.9777 40.4816C23.9181 40.5227 24.8794 40.5536 25.8511 40.5536C26.8333 40.5536 27.805 40.533 28.7559 40.4816C27.8155 41.6847 26.8437 42.785 25.8824 43.7722ZM18.1085 37.7155C16.6247 37.4995 15.1932 37.2322 13.8244 36.9031C14.211 35.5766 14.6917 34.209 15.235 32.8413C15.6634 33.664 16.1127 34.4866 16.6038 35.3093C17.0949 36.1319 17.5965 36.934 18.1085 37.7155ZM25.8302 16.3165C26.8019 17.3037 27.7737 18.404 28.735 19.6071C27.7946 19.566 26.8333 19.5351 25.8615 19.5351C24.8794 19.5351 23.9076 19.5557 22.9568 19.6071C23.8972 18.404 24.8689 17.3037 25.8302 16.3165ZM18.098 22.3732C17.586 23.165 17.074 23.9774 16.5934 24.8103C16.1127 25.6329 15.6634 26.4556 15.235 27.2782C14.6708 25.9003 14.1901 24.5224 13.7931 23.1856C15.1619 22.8668 16.6038 22.5892 18.098 22.3732ZM8.64178 35.2476C4.94287 33.6948 2.55008 31.6588 2.55008 30.0444C2.55008 28.4299 4.94287 26.3836 8.64178 24.8412C9.54038 24.4607 10.5226 24.1213 11.5361 23.8026C12.1317 25.818 12.9154 27.9158 13.8871 30.0649C12.9258 32.2038 12.1526 34.2912 11.5675 36.2964C10.533 35.9777 9.55083 35.628 8.64178 35.2476ZM14.2633 49.942C12.8422 49.1399 12.2257 46.0859 12.7064 42.1577C12.8213 41.1911 13.0094 40.1731 13.2393 39.1345C15.2873 39.6281 17.5233 40.0086 19.8743 40.2554C21.2849 42.1577 22.7478 43.8853 24.2211 45.3969C20.8147 48.5126 17.6174 50.2196 15.444 50.2196C14.9738 50.2093 14.5767 50.1168 14.2633 49.942ZM39.048 42.1063C39.5391 46.0344 38.9331 49.0885 37.5225 49.9008C37.209 50.0859 36.8015 50.1682 36.3209 50.1682C34.158 50.1682 30.9502 48.4715 27.5438 45.3763C29.0067 43.8647 30.4695 42.1475 31.8592 40.2451C34.2207 39.9983 36.4567 39.6178 38.5047 39.114C38.745 40.1526 38.9331 41.15 39.048 42.1063ZM40.1452 23.7923C41.1796 24.1111 42.1618 24.4607 43.0813 24.8412C46.7802 26.3939 49.173 28.4299 49.173 30.0444C49.1626 31.6588 46.7698 33.7051 43.0709 35.2476C42.1723 35.628 41.1901 35.9674 40.1765 36.2861C39.5809 34.2707 38.7973 32.1729 37.8255 30.0238C38.7868 27.8849 39.56 25.7975 40.1452 23.7923ZM25.8615 25.4314C28.5654 25.4314 30.7574 27.4944 30.7574 30.0392C30.7574 32.5841 28.5654 34.6471 25.8615 34.6471C23.1577 34.6471 20.9657 32.5841 20.9657 30.0392C20.9657 27.4944 23.1577 25.4314 25.8615 25.4314Z" fill="#61DAFB"/>
<path d="M64.8915 24.1371V28.8822H67.7236C69.348 28.8822 70.2992 28.0059 70.2992 26.5203C70.2992 25.0562 69.2946 24.1371 67.6915 24.1371H64.8915ZM64.8915 31.3616V36.951H61.664V21.5294H68.1404C71.5282 21.5294 73.6122 23.4104 73.6122 26.4776C73.6122 28.444 72.5862 30.154 70.8122 30.8593L74.061 36.951H70.4061L67.5312 31.3616H64.8915ZM80.2381 27.2898C78.7953 27.2898 77.7801 28.2944 77.6732 29.8227H82.6961C82.632 28.2623 81.6915 27.2898 80.2381 27.2898ZM82.7603 33.5952H85.6565C85.1969 35.8075 83.1557 37.2075 80.2702 37.2075C76.6793 37.2075 74.5632 34.9418 74.5632 31.1158C74.5632 27.2791 76.722 24.9066 80.2274 24.9066C83.7007 24.9066 85.7527 27.1188 85.7527 30.8593V31.8105H77.6625V31.9708C77.7052 33.7235 78.7312 34.8136 80.3557 34.8136C81.5847 34.8136 82.429 34.3754 82.7603 33.5952ZM91.5129 34.7922C92.9557 34.7922 94.0458 33.8731 94.0458 32.6761V31.8105L91.6625 31.9601C90.3266 32.0563 89.6747 32.5372 89.6747 33.3815C89.6747 34.2578 90.4335 34.7922 91.5129 34.7922ZM90.487 37.1327C88.2213 37.1327 86.6289 35.7433 86.6289 33.5845C86.6289 31.4471 88.264 30.2074 91.1923 30.0364L94.0458 29.8654V28.9036C94.0458 27.9204 93.3404 27.3646 92.058 27.3646C90.9358 27.3646 90.1877 27.7494 89.9312 28.4547H87.0671C87.2701 26.2745 89.2686 24.9066 92.229 24.9066C95.3496 24.9066 97.113 26.3814 97.113 28.9036V36.951H94.0992V35.412H93.9068C93.2977 36.4914 92.0152 37.1327 90.487 37.1327ZM109.563 29.3204H106.656C106.443 28.1982 105.641 27.4608 104.316 27.4608C102.638 27.4608 101.698 28.7112 101.698 31.0303C101.698 33.3815 102.649 34.6533 104.316 34.6533C105.588 34.6533 106.421 34.0334 106.656 32.8685H109.563C109.307 35.5082 107.383 37.2075 104.316 37.2075C100.64 37.2075 98.5556 34.9846 98.5556 31.0303C98.5556 27.1188 100.629 24.9066 104.316 24.9066C107.437 24.9066 109.307 26.6379 109.563 29.3204ZM111.946 22.363H115.056V25.2806H117.504V27.728H115.056V33.0288C115.056 34.0548 115.527 34.525 116.585 34.525C116.991 34.525 117.205 34.5143 117.504 34.4823V36.8548C117.119 36.9296 116.542 36.9937 115.943 36.9937C113.079 36.9937 111.946 36.064 111.946 33.7662V27.728H110.108V25.2806H111.946V22.363ZM127.058 36.951H123.969V21.5294H126.662L133.759 31.1372H133.951V21.5294H137.04V36.951H134.368L127.25 27.3005H127.058V36.951ZM143.687 34.7922C145.13 34.7922 146.22 33.8731 146.22 32.6761V31.8105L143.837 31.9601C142.501 32.0563 141.849 32.5372 141.849 33.3815C141.849 34.2578 142.608 34.7922 143.687 34.7922ZM142.661 37.1327C140.395 37.1327 138.803 35.7433 138.803 33.5845C138.803 31.4471 140.438 30.2074 143.366 30.0364L146.22 29.8654V28.9036C146.22 27.9204 145.514 27.3646 144.232 27.3646C143.11 27.3646 142.362 27.7494 142.105 28.4547H139.241C139.444 26.2745 141.443 24.9066 144.403 24.9066C147.524 24.9066 149.287 26.3814 149.287 28.9036V36.951H146.273V35.412H146.081C145.472 36.4914 144.189 37.1327 142.661 37.1327ZM152.194 22.363H155.304V25.2806H157.751V27.728H155.304V33.0288C155.304 34.0548 155.774 34.525 156.832 34.525C157.238 34.525 157.452 34.5143 157.751 34.4823V36.8548C157.366 36.9296 156.789 36.9937 156.191 36.9937C153.327 36.9937 152.194 36.064 152.194 33.7662V27.728H150.356V25.2806H152.194V22.363ZM159.322 36.951V25.1631H162.432V36.951H159.322ZM160.882 23.3997C159.92 23.3997 159.119 22.6088 159.119 21.6149C159.119 20.621 159.92 19.8409 160.882 19.8409C161.855 19.8409 162.646 20.621 162.646 21.6149C162.646 22.6088 161.855 23.3997 160.882 23.3997ZM175.192 25.1631L171.12 36.951H167.615L163.522 25.1631H166.867L169.304 33.9479H169.496L171.911 25.1631H175.192ZM180.878 27.2898C179.435 27.2898 178.42 28.2944 178.313 29.8227H183.336C183.272 28.2623 182.331 27.2898 180.878 27.2898ZM183.4 33.5952H186.296C185.837 35.8075 183.795 37.2075 180.91 37.2075C177.319 37.2075 175.203 34.9418 175.203 31.1158C175.203 27.2791 177.362 24.9066 180.867 24.9066C184.34 24.9066 186.392 27.1188 186.392 30.8593V31.8105H178.302V31.9708C178.345 33.7235 179.371 34.8136 180.995 34.8136C182.224 34.8136 183.069 34.3754 183.4 33.5952Z" fill="#48C0E1"/>
</svg>
