
<svg xmlns="http://www.w3.org/2000/svg" width="22" height="22" fill="none" viewBox="0 0 22 22">
    <path fill="#53C1DE" fill-rule="evenodd" d="M21 11.002c0-1.339-1.66-2.608-4.203-3.395.587-2.62.326-4.705-.824-5.372-.263-.156-.572-.23-.909-.23V2c-1.12 0-2.588.808-4.072 2.208C9.508 2.816 8.04 2.016 6.919 2.016v.005c-.342 0-.652.074-.921.23C4.852 2.92 4.596 5 5.187 7.611 2.65 8.402 1 9.667 1 11.002c0 1.339 1.66 2.608 4.203 3.395-.587 2.62-.326 4.705.824 5.372.264.157.574.231.917.231 1.12 0 2.588-.808 4.072-2.208 1.484 1.392 2.952 2.191 4.073 2.191.342 0 .652-.074.921-.23 1.146-.668 1.403-2.748.811-5.36C19.35 13.606 21 12.337 21 11.003zm-9.36-6.151c1.327-1.246 2.572-1.93 3.42-1.932v.004c.188 0 .339.037.465.107.554.321.795 1.545.607 3.119-.044.387-.118.795-.207 1.211-.8-.198-1.672-.35-2.59-.449-.55-.762-1.12-1.454-1.695-2.06zM6.92 2.935c.843 0 2.095.68 3.424 1.92-.571.606-1.142 1.294-1.684 2.056-.921.099-1.794.251-2.593.453-.094-.412-.163-.811-.212-1.195-.191-1.573.045-2.797.595-3.123.123-.074.282-.107.47-.107v-.004zm8.772 5.32c-.15.53-.338 1.078-.55 1.626-.167-.33-.343-.659-.534-.988-.188-.33-.387-.651-.587-.964.579.086 1.137.193 1.671.325zm-2.85 5.96c.339-.49.665-1.017.983-1.573.306-.54.587-1.092.844-1.644-.257-.552-.538-1.1-.848-1.64-.318-.552-.648-1.075-.986-1.565-.604-.05-1.22-.079-1.835-.079-.62 0-1.235.03-1.843.083-.338.49-.664 1.017-.982 1.574-.306.54-.591 1.091-.844 1.643.257.553.538 1.1.848 1.64.318.552.648 1.075.986 1.566.604.05 1.22.078 1.835.078.62 0 1.235-.029 1.843-.082zm2.3-2.109c.22.552.408 1.104.563 1.64-.535.132-1.097.243-1.68.33.2-.318.4-.643.587-.977.187-.33.363-.663.53-.993zm-5.267 3.078c.375.482.754.923 1.133 1.318.375-.395.754-.836 1.121-1.318-.37.02-.75.029-1.133.029-.38 0-.754-.013-1.121-.03zm-1.9-1.108c-.579-.087-1.137-.194-1.671-.326.15-.531.338-1.08.55-1.627.167.33.342.659.534.989.192.33.387.65.587.963zm4.146-7.256c-.375-.482-.754-.923-1.133-1.318-.375.395-.754.836-1.121 1.318.37-.02.75-.029 1.133-.029.38 0 .754.013 1.121.03zM7.971 7.93c-.2.317-.4.642-.587.976-.188.33-.363.66-.53.989-.22-.552-.408-1.104-.563-1.64.535-.128 1.097-.239 1.68-.325zm-6.066 3.073c0 .647.934 1.463 2.377 2.085.354.152.738.292 1.141.42.228-.803.53-1.64.905-2.497-.379-.86-.685-1.701-.917-2.509-.396.128-.779.264-1.13.416-1.442.618-2.376 1.438-2.376 2.085zm4.57 7.972c-.554-.321-.795-1.545-.607-3.119.044-.387.118-.795.207-1.21.8.197 1.672.35 2.59.448.55.762 1.12 1.454 1.695 2.06-1.329 1.248-2.576 1.932-3.424 1.932-.184-.004-.339-.04-.461-.11zm9.075-.016c.55-.326.786-1.55.595-3.123-.045-.383-.119-.783-.212-1.2-.8.203-1.672.355-2.593.454-.542.762-1.113 1.45-1.684 2.056 1.33 1.24 2.58 1.92 3.425 1.92.187 0 .346-.033.469-.107zm2.164-5.871c-.35.152-.734.288-1.129.416-.232-.808-.538-1.648-.917-2.51.375-.856.677-1.692.905-2.496.403.128.787.268 1.145.42 1.443.622 2.377 1.438 2.377 2.085-.004.647-.938 1.467-2.38 2.085zM12.91 11c0 1.02-.855 1.846-1.91 1.846S9.09 12.02 9.09 11 9.945 9.154 11 9.154s1.91.826 1.91 1.846z" clip-rule="evenodd"/>
</svg>