<svg width="45" height="45" xmlns="http://www.w3.org/2000/svg" xmlns:xlink="http://www.w3.org/1999/xlink" version="1.1">
 <!-- Generator: Sketch 58 (84663) - https://sketch.com -->
 <title>HP / Icons / icon-slack</title>
 <desc>Created with Sketch.</desc>
 <defs>
  <path id="path-1" d="m8.86452,12.63871c1.37419,0 2.49677,1.12258 2.49677,2.49677l0,6.25162c0,1.37419 -1.12258,2.49677 -2.49677,2.49677c-1.3742,0 -2.49678,-1.12258 -2.49678,-2.49677l0,-6.25162c0,-1.37419 1.12258,-2.49677 2.49678,-2.49677zm6.27096,6.25161c1.3742,0 2.49678,1.12258 2.49678,2.49678c0,1.37419 -1.12258,2.49677 -2.49678,2.49677c-1.37419,0 -2.49677,-1.12258 -2.49677,-2.49677l0,-2.49678l2.49677,0zm-10.0258,-6.25161l0,2.49677c0,1.3742 -1.12258,2.49678 -2.49678,2.49678c-1.37419,0 -2.49677,-1.12258 -2.49677,-2.49678c0,-1.37419 1.12258,-2.49677 2.49677,-2.49677l2.49678,0zm16.27742,0c1.37419,0 2.49677,1.12258 2.49677,2.49677c0,1.3742 -1.12258,2.49678 -2.49677,2.49678l-6.25162,0c-1.37419,0 -2.49677,-1.12258 -2.49677,-2.49678c0,-1.37419 1.12258,-2.49677 2.49677,-2.49677l6.25162,0zm-12.52258,-6.27097c1.37419,0 2.49677,1.12258 2.49677,2.49678c0,1.37419 -1.12258,2.49677 -2.49677,2.49677l-6.25162,0c-1.37419,0 -2.49677,-1.12258 -2.49677,-2.49677c0,-1.3742 1.12258,-2.49678 2.49677,-2.49678l6.25162,0zm12.52258,0c1.37419,0 2.49677,1.12258 2.49677,2.49678c0,1.37419 -1.12258,2.49677 -2.49677,2.49677l-2.49678,0l0,-2.49677c0,-1.3742 1.12258,-2.49678 2.49678,-2.49678zm-6.25162,-6.25161c1.3742,0 2.49678,1.12258 2.49678,2.49677l0,6.25162c0,1.37419 -1.12258,2.49677 -2.49678,2.49677c-1.37419,0 -2.49677,-1.12258 -2.49677,-2.49677l0,-6.25162c0,-1.37419 1.12258,-2.49677 2.49677,-2.49677zm-6.27096,0c1.37419,0 2.49677,1.12258 2.49677,2.49677l0,2.49678l-2.49677,0c-1.3742,0 -2.49678,-1.12258 -2.49678,-2.49678c0,-1.37419 1.12258,-2.49677 2.49678,-2.49677z"/>
  <filter id="svg_3_blur">
   <feGaussianBlur stdDeviation="0" in="SourceGraphic"/>
  </filter>
 </defs>
 <g>
  <title>Layer 1</title>
  <ellipse stroke-width="0" filter="url(#svg_3_blur)" stroke="#000" ry="22.5" rx="22.5" id="svg_3" cy="22.5" cx="22.5" fill="#ffffff"/>
  <g fill-rule="evenodd" fill="none" id="HP-/-Icons-/-icon-slack">
   <g id="icon">
    <mask fill="#000000" id="mask-2">
     <use id="svg_1" xlink:href="#path-1"/>
    </mask>
    <use x="10.5" y="10.5" id="svg_2" xlink:href="#path-1" fill-rule="nonzero" fill="#000"/>
    <g fill="#000" mask="url(#mask-2)" id="zc-/-Style-/-Blue">
     <polygon points="10.5,10.5 34.5,10.5 34.5,34.5 10.5,34.5 " id="bg"/>
    </g>
   </g>
  </g>
  <ellipse id="svg_5" cy="27.75" cx="26.5" stroke-width="0" stroke="#000" fill="#00ff00"/>
  <ellipse ry="2" rx="20.5" id="svg_6" cy="103.75" cx="10" stroke-width="0" stroke="#000" fill="#00ff00"/>
 </g>
</svg>