<svg width="80" height="80" viewBox="0 0 80 80" fill="none" xmlns="http://www.w3.org/2000/svg">
<circle cx="40" cy="40" r="40" fill="#F6F6F6"/>
<g clip-path="url(#clip0)">
<path d="M27.002 18H51.9278C53.1407 18 54.3185 18.1934 55.4611 18.5977C57.1134 19.1953 58.6075 20.25 59.7325 21.6211C60.8751 22.9922 61.631 24.6797 61.8947 26.4375C62.0001 27.0879 62.0177 27.7383 62.0177 28.3887V52.6992C62.0177 53.4727 61.9826 54.2637 61.8243 55.0195C61.4728 56.7598 60.6466 58.3945 59.4513 59.7129C58.2736 61.0313 56.7267 62.0156 55.0568 62.543C54.0372 62.8594 52.9825 63 51.9103 63C51.4357 63 26.9317 63 26.5625 62.9824C24.7696 62.8945 22.9942 62.3145 21.5 61.3125C20.041 60.3281 18.8457 58.957 18.0723 57.375C17.4043 56.0215 17.0703 54.5098 17.0703 52.998V28.002C17.0352 26.5078 17.3516 25.0313 18.002 23.6953C18.7578 22.1133 19.9356 20.7246 21.3946 19.7402C22.8887 18.7207 24.6465 18.123 26.4395 18.0352C26.6153 18 26.8086 18 27.002 18V18Z" fill="url(#paint0_linear)"/>
<path d="M54.9688 54.8086C54.8106 54.5625 54.6348 54.3164 54.4414 54.0879C54.002 53.5605 53.4922 53.1035 52.9297 52.7168C52.2266 52.2422 51.4004 51.9434 50.5566 51.9082C49.959 51.873 49.3613 51.9785 48.7988 52.1895C48.2363 52.3828 47.6914 52.6641 47.1641 52.9453C46.5488 53.2617 45.9336 53.5781 45.2832 53.8418C44.5098 54.1582 43.7012 54.4043 42.875 54.5801C41.8379 54.7734 40.7832 54.8438 39.7461 54.8262C37.8652 54.791 35.9844 54.5098 34.1914 53.9824C32.6094 53.5078 31.0977 52.8574 29.6738 52.0313C28.4258 51.3105 27.2656 50.4844 26.1758 49.5527C25.2793 48.7793 24.4531 47.9531 23.6797 47.0742C23.1523 46.459 22.6426 45.8086 22.168 45.1406C21.9746 44.877 21.7988 44.5957 21.6406 44.3145L17 39.3047V27.9668C17 22.4648 21.4473 18 26.9492 18H35.8262L42.4004 24.6797C57.2363 34.7695 52.4375 45.8965 52.4375 45.8965C52.4375 45.8965 56.6563 50.6426 54.9688 54.8086V54.8086Z" fill="url(#paint1_linear)"/>
<path d="M42.4355 24.6797C57.2714 34.7695 52.4725 45.8965 52.4725 45.8965C52.4725 45.8965 56.6913 50.6602 54.9862 54.8262C54.9862 54.8262 53.246 51.9082 50.328 51.9082C47.5155 51.9082 45.8632 54.8262 40.2031 54.8262C27.5996 54.8262 21.6406 44.2969 21.6406 44.2969C32.9961 51.7676 40.748 46.4766 40.748 46.4766C35.6328 43.5059 24.7519 29.3027 24.7519 29.3027C34.2265 37.3711 38.3222 39.498 38.3222 39.498C35.8789 37.4766 29.0234 27.5977 29.0234 27.5977C34.5078 33.1523 45.4062 40.9043 45.4062 40.9043C48.4999 32.3262 42.4355 24.6797 42.4355 24.6797Z" fill="white"/>
</g>
<defs>
<linearGradient id="paint0_linear" x1="43.77" y1="16.3942" x2="35.268" y2="64.6112" gradientUnits="userSpaceOnUse">
<stop stop-color="#FAAE42"/>
<stop offset="1" stop-color="#EF3E31"/>
</linearGradient>
<linearGradient id="paint1_linear" x1="39.9591" y1="18.727" x2="33.7367" y2="54.0163" gradientUnits="userSpaceOnUse">
<stop stop-color="#E39F3A"/>
<stop offset="1" stop-color="#D33929"/>
</linearGradient>
<clipPath id="clip0">
<rect width="45" height="45" fill="white" transform="translate(17 18)"/>
</clipPath>
</defs>
</svg>
