
<svg xmlns="http://www.w3.org/2000/svg" width="22" height="22" fill="none" viewBox="0 0 22 22">
    <path fill="url(#prefix__paint0_linear)" d="M6 2h9.966c.485 0 .956.077 1.412.24.661.238 1.259.66 1.708 1.208.457.549.76 1.224.865 1.927.042.26.049.52.049.78v9.725c0 .31-.014.626-.077.928-.14.696-.471 1.35-.95 1.877-.47.527-1.088.921-1.756 1.132-.408.127-.83.183-1.258.183-.19 0-9.988 0-10.135-.007-.717-.035-1.427-.267-2.025-.668-.583-.394-1.061-.942-1.37-1.575-.267-.541-.4-1.146-.4-1.75V6c-.015-.597.112-1.188.372-1.722.302-.633.773-1.188 1.356-1.582.598-.408 1.3-.647 2.017-.682C5.844 2 5.922 2 6 2z"/>
    <path fill="url(#prefix__paint1_linear)" d="M17.182 16.723c-.064-.098-.134-.196-.211-.288-.176-.21-.38-.394-.605-.548-.28-.19-.611-.31-.949-.324-.239-.014-.477.028-.702.113-.225.077-.443.19-.654.302-.246.127-.492.253-.752.359-.31.126-.633.225-.963.295-.415.077-.836.105-1.251.098-.752-.014-1.504-.126-2.221-.337-.633-.19-1.237-.45-1.806-.78-.5-.289-.963-.62-1.4-.992-.358-.31-.688-.64-.997-.991-.211-.246-.415-.507-.605-.774-.077-.105-.147-.218-.21-.33L2 10.522V5.987C2 3.786 3.778 2 5.978 2h3.55l2.628 2.672c5.932 4.036 4.013 8.487 4.013 8.487s1.687 1.898 1.013 3.564z"/>
    <path fill="#fff" d="M12.171 4.672c5.932 4.036 4.013 8.487 4.013 8.487s1.687 1.905 1.005 3.571c0 0-.695-1.167-1.862-1.167-1.125 0-1.786 1.167-4.049 1.167-5.04 0-7.422-4.211-7.422-4.211 4.54 2.988 7.64.872 7.64.872C9.451 12.202 5.1 6.52 5.1 6.52 8.89 9.748 10.526 10.6 10.526 10.6c-.977-.808-3.718-4.76-3.718-4.76 2.193 2.222 6.55 5.323 6.55 5.323 1.238-3.432-1.187-6.49-1.187-6.49z"/>
    <defs>
        <linearGradient id="prefix__paint0_linear" x1="3.075" x2="-.334" y1="-.345" y2="18.94" gradientUnits="userSpaceOnUse">
            <stop stop-color="#FAAE42"/>
            <stop offset="1" stop-color="#EF3E31"/>
        </linearGradient>
        <linearGradient id="prefix__paint1_linear" x1="3.83" x2="1.531" y1="1.096" y2="15.243" gradientUnits="userSpaceOnUse">
            <stop stop-color="#E39F3A"/>
            <stop offset="1" stop-color="#D33929"/>
        </linearGradient>
    </defs>
</svg>
