<svg width="80" height="80" viewBox="0 0 80 80" fill="none" xmlns="http://www.w3.org/2000/svg">
<rect width="80" height="80" rx="5" fill="#F6F6F6"/>
<path d="M26.002 17H50.9278C52.1407 17 53.3185 17.1934 54.4611 17.5977C56.1134 18.1953 57.6075 19.25 58.7325 20.6211C59.8751 21.9922 60.631 23.6797 60.8947 25.4375C61.0001 26.0879 61.0177 26.7383 61.0177 27.3887V51.6992C61.0177 52.4727 60.9826 53.2637 60.8243 54.0195C60.4728 55.7598 59.6466 57.3945 58.4513 58.7129C57.2736 60.0313 55.7267 61.0156 54.0568 61.543C53.0372 61.8594 51.9825 62 50.9103 62C50.4357 62 25.9317 62 25.5625 61.9824C23.7696 61.8945 21.9942 61.3145 20.5 60.3125C19.041 59.3281 17.8457 57.957 17.0723 56.375C16.4043 55.0215 16.0703 53.5098 16.0703 51.998V27.002C16.0352 25.5078 16.3516 24.0313 17.002 22.6953C17.7578 21.1133 18.9356 19.7246 20.3946 18.7402C21.8887 17.7207 23.6465 17.123 25.4395 17.0352C25.6153 17 25.8086 17 26.002 17Z" fill="url(#paint0_linear)"/>
<path d="M53.9688 53.8086C53.8106 53.5625 53.6348 53.3164 53.4414 53.0879C53.002 52.5605 52.4922 52.1035 51.9297 51.7168C51.2266 51.2422 50.4004 50.9434 49.5566 50.9082C48.959 50.873 48.3613 50.9785 47.7988 51.1895C47.2363 51.3828 46.6914 51.6641 46.1641 51.9453C45.5488 52.2617 44.9336 52.5781 44.2832 52.8418C43.5098 53.1582 42.7012 53.4043 41.875 53.5801C40.8379 53.7734 39.7832 53.8438 38.7461 53.8262C36.8652 53.791 34.9844 53.5098 33.1914 52.9824C31.6094 52.5078 30.0977 51.8574 28.6738 51.0313C27.4258 50.3105 26.2656 49.4844 25.1758 48.5527C24.2793 47.7793 23.4531 46.9531 22.6797 46.0742C22.1523 45.459 21.6426 44.8086 21.168 44.1406C20.9746 43.877 20.7988 43.5957 20.6406 43.3145L16 38.3047V26.9668C16 21.4648 20.4473 17 25.9492 17H34.8262L41.4004 23.6797C56.2363 33.7695 51.4375 44.8965 51.4375 44.8965C51.4375 44.8965 55.6563 49.6426 53.9688 53.8086Z" fill="url(#paint1_linear)"/>
<path d="M41.4355 23.6797C56.2714 33.7695 51.4725 44.8965 51.4725 44.8965C51.4725 44.8965 55.6913 49.6602 53.9862 53.8262C53.9862 53.8262 52.246 50.9082 49.328 50.9082C46.5155 50.9082 44.8632 53.8262 39.2031 53.8262C26.5996 53.8262 20.6406 43.2969 20.6406 43.2969C31.9961 50.7676 39.748 45.4766 39.748 45.4766C34.6328 42.5059 23.7519 28.3027 23.7519 28.3027C33.2265 36.3711 37.3222 38.498 37.3222 38.498C34.8789 36.4766 28.0234 26.5977 28.0234 26.5977C33.5078 32.1523 44.4062 39.9043 44.4062 39.9043C47.4999 31.3262 41.4355 23.6797 41.4355 23.6797Z" fill="white"/>
<defs>
<linearGradient id="paint0_linear" x1="42.77" y1="15.3942" x2="34.268" y2="63.6112" gradientUnits="userSpaceOnUse">
<stop stop-color="#FAAE42"/>
<stop offset="1" stop-color="#EF3E31"/>
</linearGradient>
<linearGradient id="paint1_linear" x1="38.9591" y1="17.727" x2="32.7367" y2="53.0163" gradientUnits="userSpaceOnUse">
<stop stop-color="#E39F3A"/>
<stop offset="1" stop-color="#D33929"/>
</linearGradient>
</defs>
</svg>
