<svg width="45" height="45" viewBox="0 0 45 45" fill="none" xmlns="http://www.w3.org/2000/svg">
<circle cx="22.5" cy="22.5" r="22.5" fill="#E9F2FF"/>
<path d="M29.1406 35H15.8594C12.6285 35 10 32.3715 10 29.1406V15.8594C10 12.6285 12.6285 10 15.8594 10H26.0156C27.3113 10.0516 27.3104 11.902 26.0156 11.9531H15.8594C13.7055 11.9531 11.9531 13.7055 11.9531 15.8594V29.1406C11.9531 31.2945 13.7055 33.0469 15.8594 33.0469H29.1406C31.2945 33.0469 33.0469 31.2945 33.0469 29.1406V20.1074C33.0984 18.8117 34.9489 18.8127 35 20.1074V29.1406C35 32.3715 32.3715 35 29.1406 35ZM28.8152 21.5644L34.291 15.0235C34.292 15.0223 34.2931 15.0209 34.2941 15.0197C35.3724 13.7182 35.1907 11.7821 33.8893 10.7038C32.5877 9.62559 30.6517 9.80723 29.5734 11.1086C29.5715 11.1109 29.5697 11.1131 29.5679 11.1154L24.1838 17.7333C23.8435 18.1517 23.9067 18.7668 24.3251 19.1072C24.7435 19.4475 25.3585 19.3843 25.699 18.9659L31.0799 12.3518C31.4715 11.8822 32.1721 11.8175 32.6433 12.2078C33.1149 12.5987 33.1812 13.3001 32.7912 13.7723L27.3176 20.3106C26.9714 20.7242 27.026 21.3401 27.4396 21.6863C27.6224 21.8394 27.8447 21.9141 28.0659 21.9141C28.3449 21.9141 28.6221 21.7951 28.8152 21.5644ZM18.276 31.1426C17.2687 31.1426 16.296 30.5963 15.798 29.751C15.3735 29.0305 15.3575 28.2069 15.7539 27.4915C16.243 26.6086 16.5229 25.7891 16.7936 24.9964C17.2547 23.6459 17.6904 22.3703 19.0058 21.2758C19.961 20.4811 21.1667 20.1082 22.4006 20.2261C23.6366 20.344 24.7522 20.9398 25.5419 21.9035C26.2252 22.7374 26.6016 23.7967 26.6016 24.8863C26.711 28.6894 21.7194 31.144 18.276 31.1426ZM21.9578 22.1581C21.3369 22.1581 20.7403 22.3734 20.255 22.7772C19.3614 23.5208 19.0596 24.4044 18.6419 25.6276C18.3576 26.4601 18.0354 27.4037 17.4623 28.4381C17.4333 28.4903 17.3795 28.5876 17.4808 28.7596C17.6067 28.9732 17.9203 29.1895 18.276 29.1895C20.4388 29.1895 24.6484 27.6706 24.6484 24.8863C24.6484 24.2376 24.435 23.6342 24.0312 23.1414C23.5739 22.5833 22.9289 22.2385 22.215 22.1704C22.129 22.1621 22.0431 22.1581 21.9578 22.1581Z" fill="#068DF8"/>
</svg>
