<svg width="45" height="45" viewBox="0 0 45 45" fill="none" xmlns="http://www.w3.org/2000/svg">
<path d="M22.5 45C34.9264 45 45 34.9264 45 22.5C45 10.0736 34.9264 0 22.5 0C10.0736 0 0 10.0736 0 22.5C0 34.9264 10.0736 45 22.5 45Z" fill="white"/>
<g clip-path="url(#clip0_401_11)">
<path d="M30.4789 15.9338L22.7383 11.4672L15 15.9338V11.4672L22.7394 7.00061L30.48 11.4672V15.9338H30.4789Z" fill="#A435F0"/>
<path d="M15 19.6848H19.0544V29.5308C19.0544 32.0746 20.9547 33.3148 22.7394 33.3148C24.5396 33.3148 26.4259 32.0416 26.4259 29.4967V19.6848H30.48V29.7655C30.48 32.1087 29.7431 33.9171 28.2688 35.1569C26.7938 36.396 24.9517 36.9994 22.7053 36.9994C20.4611 36.9994 18.6179 36.3972 17.1782 35.1569C15.7369 33.9182 15 32.177 15 29.8657V19.6848Z" fill="black"/>
</g>
<defs>
<clipPath id="clip0_401_11">
<rect width="15.48" height="30" fill="white" transform="translate(15 7)"/>
</clipPath>
</defs>
</svg>
