<?xml version="1.0" encoding="UTF-8"?>
<svg width="24px" height="24px" viewBox="0 0 24 24" version="1.1" xmlns="http://www.w3.org/2000/svg" xmlns:xlink="http://www.w3.org/1999/xlink">
    <!-- Generator: Sketch 47.1 (45422) - http://www.bohemiancoding.com/sketch -->
    <title>icon-linkedin</title>
    <desc>Created with Sketch.</desc>
    <defs></defs>
    <g id="Symbols" stroke="none" stroke-width="1" fill="none" fill-rule="evenodd">
        <g id="icon-linkedin" fill-rule="nonzero" fill="#ffffff">
            <g id="icon">
                <path d="M1.086,8.17096875 L5.7324375,8.17096875 L5.7324375,23.10625 L1.086,23.10625 L1.086,8.17096875 Z M3.41053125,0.74665625 C4.89534375,0.74665625 6.10065625,1.9526875 6.10065625,3.4384375 C6.10065625,4.9245 4.89534375,6.13040625 3.41053125,6.13040625 C1.91975,6.13040625 0.71765625,4.9245 0.71765625,3.4384375 C0.71765625,1.9526875 1.91975,0.74665625 3.41053125,0.74665625 Z M8.6444375,8.17096875 L13.09375,8.17096875 L13.09375,10.21275 L13.1575312,10.21275 C13.7764375,9.0385625 15.2910312,7.8003125 17.5493125,7.8003125 C22.2490312,7.8003125 23.1175625,10.8928125 23.1175625,14.9150312 L23.1175625,23.10625 L18.4764375,23.10625 L18.4764375,15.8430937 C18.4764375,14.1112187 18.4465312,11.883125 16.0643437,11.883125 C13.6491562,11.883125 13.2805312,13.770625 13.2805312,15.7191875 L13.2805312,23.10625 L8.6444375,23.10625 L8.6444375,8.17096875 Z"></path>
            </g>
        </g>
    </g>
</svg>