<?xml version="1.0" encoding="UTF-8"?>
<svg width="24px" height="24px" viewBox="0 0 24 24" version="1.1" xmlns="http://www.w3.org/2000/svg" xmlns:xlink="http://www.w3.org/1999/xlink">
    <!-- Generator: Sketch 57.1 (83088) - https://sketch.com -->
    <title>HP / Icons / icon-instagram</title>
    <desc>Created with Sketch.</desc>
    <defs>
        <path d="M12.0959443,0.000750992926 C14.1059278,0.00422856132 14.523899,0.0200304251 15.5351817,0.0663677618 C16.7060427,0.119595095 17.5056253,0.305519612 18.2053475,0.577245368 C18.9393914,0.853511102 19.6043298,1.28658954 20.1537842,1.84627408 C20.713355,2.3957199 21.1463385,3.06061572 21.4225409,3.79459534 C21.6944828,4.49427934 21.8804059,5.29386829 21.9338511,6.46473863 C21.9873836,7.63783588 22.0000463,8.01261045 22.0000463,11.0000218 C22.0000463,13.9874332 21.9873836,14.3620331 21.9338511,15.535305 C21.8804059,16.7061317 21.6944828,17.5057207 21.4225409,18.2054483 C20.8510816,19.6830087 19.683027,20.8510725 18.2054784,21.4225363 C17.5058,21.6944804 16.7062174,21.8804049 15.5353564,21.9338506 C14.3622684,21.9873835 13.9874968,22.0000463 11.0001092,22.0000463 C8.01272149,22.0000463 7.63812455,21.9873835 6.46486196,21.9338506 C5.29404457,21.8804049 4.49446197,21.6944804 3.79473986,21.4225363 C3.06076607,21.1463317 2.39587553,20.7133448 1.84643407,20.1537696 C1.28686662,19.6043211 0.853883609,18.939426 0.577677421,18.2054483 C0.3057355,17.5057643 0.119812459,16.7061754 0.066367226,15.535305 C0.0200302572,14.5240143 0.0042285188,14.1060398 0.000750978012,12.0960403 L0.000750978012,9.90400338 C0.0042285188,7.89400384 0.0200302572,7.47602936 0.066367226,6.46473863 C0.119594137,5.29386829 0.305517178,4.49427934 0.577240777,3.79455167 C0.853548017,3.06054147 1.2866521,2.39564357 1.84634674,1.84623041 C2.39578999,1.28665743 3.06068001,0.853670814 3.79465254,0.577463692 C4.49433098,0.305519612 5.29391358,0.119595095 6.46477463,0.0661494381 C7.4254932,0.0223077679 7.8507481,0.00587793116 9.61418146,0.00136604145 L9.90401207,0.000750420015 L12.0959443,0.000750992926 Z M11.2946786,1.98198189 L10.705269,1.98198174 C8.03784763,1.98276397 7.67493214,1.99498719 6.55498529,2.04608398 C5.48250015,2.09498851 4.90006064,2.27418865 4.51245171,2.42483205 C4.03467249,2.60117435 3.60248723,2.88235214 3.24766852,3.24769431 C2.88229108,3.60251861 2.60108471,4.03472371 2.42472546,4.5125312 C2.27408326,4.90018688 2.0949282,5.48258735 2.0459804,6.555081 C1.99488401,7.67512106 1.98266089,8.03796093 1.98187867,10.7053979 L1.98187867,11.2949082 C1.98266089,13.9623534 1.99488401,14.3253111 2.0459804,15.4452246 C2.09488454,16.5177183 2.27408326,17.1001624 2.42472546,17.4877745 C2.60106637,17.9655575 2.88224192,18.3977461 3.24758119,18.7525677 C3.60239801,19.1179121 4.03458382,19.3990903 4.51236438,19.5754299 C4.90001697,19.7260297 5.48241282,19.9052298 6.55489796,19.954178 C7.6347654,20.0034499 8.0106717,20.0165754 10.428025,20.0181514 L11.5718458,20.0181514 C13.9892141,20.0165754 14.3652256,20.0034499 15.444971,19.954178 C16.5174562,19.9052735 17.0998957,19.7260733 17.4875046,19.5754299 C18.4468299,19.2053659 19.2050825,18.4471074 19.5751435,17.4877745 C19.7257421,17.1001188 19.9049408,16.5177183 19.9538886,15.4452246 C20.0068099,14.2851832 20.0180316,13.9373934 20.0180316,11.0001528 C20.0180316,8.06291224 20.0068099,7.71503516 19.9538886,6.555081 C19.9049845,5.48258735 19.7257857,4.90014321 19.5751435,4.5125312 C19.398804,4.03474752 19.1176282,3.60255856 18.7522878,3.24773798 C18.39747,2.88239466 17.9652845,2.60121669 17.4875046,2.42487571 C17.099852,2.27423232 16.5174562,2.09507584 15.444971,2.04612765 C14.364941,1.99685574 13.9889099,1.98369245 11.5717869,1.98211117 L11.2946786,1.98198189 Z M10.9999345,5.3513311 C14.1195955,5.3513311 16.6485804,7.88033609 16.6485804,11.0000218 C16.6485804,14.1197076 14.1195955,16.6487126 10.9999345,16.6487126 C7.88027352,16.6487126 5.35128861,14.1197076 5.35128861,11.0000218 C5.35128861,7.88033609 7.88027352,5.3513311 10.9999345,5.3513311 Z M10.9999927,7.33336156 C8.97497392,7.33336156 7.33334699,8.97495785 7.33334699,10.9999927 C7.33334699,13.0250276 8.97491571,14.6666821 10.9999345,14.6666821 C13.024966,14.6666821 14.6666093,13.0250694 14.6666093,11.0000218 C14.6666093,8.97498696 13.0250115,7.33336156 10.9999927,7.33336156 Z M16.8717492,3.80817508 C17.6007512,3.80817508 18.1917242,4.3991527 18.1917242,5.12816055 C18.1917242,5.8571684 17.6007512,6.44814602 16.8717492,6.44814602 C16.1427471,6.44814602 15.5517742,5.8571684 15.5517742,5.12816055 C15.5517742,4.3991527 16.1427471,3.80817508 16.8717492,3.80817508 Z" id="path-1"></path>
    </defs>
    <g id="HP-/-Icons-/-icon-instagram" stroke="none" stroke-width="1" fill="none" fill-rule="evenodd">
        <g id="icon" transform="translate(1.000000, 1.000000)">
            <mask id="mask-2" fill="white">
                <use xlink:href="#path-1"></use>
            </mask>
            <use fill="#ffffff" fill-rule="nonzero" xlink:href="#path-1"></use>
            <g id="zc-/-Style-/-Blue" mask="url(#mask-2)" fill="#ffffff">
                <g transform="translate(-1.000000, -1.000000)" id="bg">
                    <polygon points="0 0 24 0 24 24 0 24"></polygon>
                </g>
            </g>
        </g>
    </g>
</svg>