<svg xmlns="http://www.w3.org/2000/svg" width="24" height="24" viewBox="0 0 24 24">
    <path fill="#ffffff" fill-rule="nonzero" d="M24 5.367a9.647 9.647 0 0 1-2.828.795 5.045 5.045 0 0 0 2.165-2.793 9.708 9.708 0 0 1-3.127 1.225A4.861 4.861 0 0 0 16.616 3c-2.72 0-4.924 2.26-4.924 5.049 0 .396.044.781.128 1.15C7.727 8.99 4.1 6.98 1.67 3.925a5.122 5.122 0 0 0-.666 2.539c0 1.751.87 3.296 2.19 4.202a4.808 4.808 0 0 1-2.23-.632v.064c0 2.446 1.697 4.487 3.95 4.95a4.819 4.819 0 0 1-2.224.087c.627 2.006 2.445 3.466 4.6 3.507A9.724 9.724 0 0 1 0 20.73 13.686 13.686 0 0 0 7.548 23c9.057 0 14.01-7.694 14.01-14.366 0-.219-.005-.436-.015-.653A10.144 10.144 0 0 0 24 5.367z"/>
</svg>
