<?xml version="1.0" encoding="UTF-8"?>
<svg width="24px" height="24px" viewBox="0 0 24 24" version="1.1" xmlns="http://www.w3.org/2000/svg" xmlns:xlink="http://www.w3.org/1999/xlink">
    <!-- Generator: Sketch 47.1 (45422) - http://www.bohemiancoding.com/sketch -->
    <title>icon-fb</title>
    <desc>Created with Sketch.</desc>
    <defs></defs>
    <g id="Symbols" stroke="none" stroke-width="1" fill="none" fill-rule="evenodd">
        <g id="icon-fb" fill-rule="nonzero" fill="#8dcbff">
            <g transform="translate(1.000000, 1.000000)" id="facebook-facebook">
                <path d="M20.7302188,0.0625 L1.2699375,0.0625 C0.60296875,0.0625 0.0625,0.6028125 0.0625,1.2699375 L0.0625,20.7302187 C0.0625,21.3970312 0.60296875,21.9375 1.2699375,21.9375 L11.7464688,21.9375 L11.7464688,13.4664375 L8.8958125,13.4664375 L8.8958125,10.164875 L11.7464688,10.164875 L11.7464688,7.73034375 C11.7464688,4.904875 13.4722188,3.36634375 15.9929688,3.36634375 C17.1999375,3.36634375 18.2375625,3.45621875 18.5399688,3.4965 L18.5399688,6.44921875 L16.79225,6.44996875 C15.4210938,6.44996875 15.155875,7.101375 15.155875,8.0571875 L15.155875,10.164875 L18.4249375,10.164875 L17.9992188,13.4664375 L15.155875,13.4664375 L15.155875,21.9375 L20.7302188,21.9375 C21.3970312,21.9375 21.9375,21.3970312 21.9375,20.7302188 L21.9375,1.2699375 C21.9375,0.6028125 21.3970312,0.0625 20.7302188,0.0625 Z"></path>
            </g>
        </g>
    </g>
</svg>