<svg width="144" height="48" viewBox="0 0 144 48" fill="none" xmlns="http://www.w3.org/2000/svg">
<path d="M9.11818 47.9976C8.75128 47.9976 8.39324 47.9929 8.02921 47.9847C7.2751 47.9749 6.52276 47.9094 5.77835 47.7886C5.08422 47.6692 4.4118 47.4471 3.78326 47.1297C3.16048 46.8149 2.59246 46.4021 2.10095 45.9072C1.60233 45.4181 1.18721 44.8508 0.872028 44.2278C0.553377 43.6008 0.332852 42.9287 0.218134 42.235C0.094248 41.4895 0.0272208 40.7358 0.0176299 39.9802C0.00999508 39.7266 0 38.8821 0 38.8821V9.10252C0 9.10252 0.0106454 8.27106 0.0176901 8.02679C0.0268733 7.27241 0.0935107 6.51982 0.217026 5.77553C0.331955 5.07988 0.552652 4.40585 0.871474 3.77677C1.18549 3.15423 1.59831 2.58652 2.09393 2.09566C2.58899 1.60014 3.15883 1.18524 3.78267 0.86609C4.40976 0.549679 5.08091 0.329177 5.77364 0.211974C6.5205 0.0899943 7.27545 0.0240463 8.03218 0.0146832L9.11877 0H134.875L135.975 0.0152724C136.725 0.0241703 137.473 0.08953 138.213 0.210795C138.913 0.329469 139.591 0.551509 140.225 0.869613C141.475 1.51279 142.492 2.53036 143.133 3.7797C143.447 4.40444 143.664 5.07297 143.778 5.76261C143.903 6.51301 143.973 7.27151 143.987 8.03208C143.99 8.37264 143.99 8.73846 143.99 9.10252C144 9.55348 144 9.9827 144 10.4155V37.5833C144 38.0201 144 38.4465 143.99 38.8762C143.99 39.2673 143.99 39.6256 143.986 39.9943C143.972 40.7413 143.903 41.4862 143.78 42.2232C143.668 42.9219 143.448 43.5993 143.13 44.2314C142.812 44.8477 142.4 45.41 141.907 45.8978C141.415 46.3954 140.846 46.8106 140.221 47.1274C139.589 47.4473 138.912 47.6702 138.213 47.7886C137.468 47.91 136.716 47.9756 135.962 47.9847C135.609 47.9929 135.24 47.9976 134.881 47.9976L133.576 48L9.11818 47.9976Z" fill="#BBCFE7"/>
<path d="M10.1182 46.9976C9.75128 46.9976 9.39324 46.9929 9.02921 46.9847C8.2751 46.9749 7.52276 46.9094 6.77835 46.7886C6.08422 46.6692 5.4118 46.4471 4.78326 46.1297C4.16048 45.8149 3.59246 45.4021 3.10095 44.9072C2.60233 44.4181 2.18721 43.8508 1.87203 43.2278C1.55338 42.6008 1.33285 41.9287 1.21813 41.235C1.09425 40.4895 1.02722 39.7358 1.01763 38.9802C1.01 38.7266 1 37.8821 1 37.8821V10.1025C1 10.1025 1.01065 9.27106 1.01769 9.02679C1.02687 8.27241 1.09351 7.51982 1.21703 6.77553C1.33196 6.07988 1.55265 5.40585 1.87147 4.77677C2.18549 4.15423 2.59831 3.58652 3.09393 3.09566C3.58899 2.60014 4.15883 2.18524 4.78267 1.86609C5.40976 1.54968 6.08091 1.32918 6.77364 1.21197C7.5205 1.08999 8.27545 1.02405 9.03218 1.01468L10.1188 1H133.875L134.975 1.01527C135.725 1.02417 136.473 1.08953 137.213 1.2108C137.913 1.32947 138.591 1.55151 139.225 1.86961C140.475 2.51279 141.492 3.53036 142.133 4.7797C142.447 5.40444 142.664 6.07297 142.778 6.76261C142.903 7.51301 142.973 8.27151 142.987 9.03208C142.99 9.37264 142.99 9.73846 142.99 10.1025C143 10.5535 143 10.9827 143 11.4155V36.5833C143 37.0201 143 37.4465 142.99 37.8762C142.99 38.2673 142.99 38.6256 142.986 38.9943C142.972 39.7413 142.903 40.4862 142.78 41.2232C142.668 41.9219 142.448 42.5993 142.13 43.2314C141.812 43.8477 141.4 44.41 140.907 44.8978C140.415 45.3954 139.846 45.8106 139.221 46.1274C138.589 46.4473 137.912 46.6702 137.213 46.7886C136.468 46.91 135.716 46.9756 134.962 46.9847C134.609 46.9929 134.24 46.9976 133.881 46.9976L132.576 47L10.1182 46.9976Z" fill="#010615"/>
<path d="M29.9703 24.5638C29.9968 22.5111 31.0729 20.615 32.8218 19.5398C31.7135 17.957 29.9238 16.9895 27.9925 16.929C25.9606 16.7158 23.9908 18.1449 22.9554 18.1449C21.8999 18.1449 20.3057 16.9502 18.5891 16.9855C16.3304 17.0585 14.2757 18.3116 13.1768 20.2863C10.8367 24.3379 12.5822 30.2923 14.8239 33.5673C15.9454 35.171 17.2562 36.9623 18.9713 36.8988C20.6497 36.8292 21.2765 35.8286 23.3024 35.8286C25.3095 35.8286 25.8976 36.8988 27.6475 36.8584C29.4484 36.8292 30.5831 35.2476 31.6653 33.6288C32.4712 32.4861 33.0912 31.2232 33.5026 29.8868C31.3636 28.9822 29.9728 26.8863 29.9703 24.5638V24.5638Z" fill="white"/>
<path d="M26.6651 14.7752C27.647 13.5964 28.1308 12.0812 28.0136 10.5515C26.5134 10.7091 25.1277 11.4261 24.1325 12.5596C23.1497 13.6781 22.6519 15.1412 22.7486 16.6269C24.2689 16.6426 25.7124 15.9601 26.6651 14.7752V14.7752Z" fill="white"/>
<path fill-rule="evenodd" clip-rule="evenodd" d="M45.4583 32.8389H51.1857L52.56 36.9002H55.0272L49.6023 21.8744H47.0819L41.657 36.9002H44.0829L45.4583 32.8389ZM50.5914 30.9648H46.0515L48.2908 24.3736H48.3534L50.5914 30.9648Z" fill="white"/>
<path fill-rule="evenodd" clip-rule="evenodd" d="M62.1715 37.0149C64.9211 37.0149 66.7432 34.8277 66.7432 31.4234C66.7432 28.0285 64.9104 25.8307 62.1301 25.8306C60.6994 25.7845 59.3592 26.5286 58.6419 27.7674H58.6005V25.9453H56.4239V40.5243H58.6726V35.0982H58.7246C59.4114 36.3448 60.7502 37.0892 62.1715 37.0149ZM61.5369 27.7473C63.2857 27.7473 64.4319 29.2054 64.4319 31.4234C64.4319 33.6614 63.2857 35.1089 61.5369 35.1089C59.8188 35.1089 58.6632 33.6307 58.6632 31.4234C58.6632 29.2361 59.8188 27.7473 61.5369 27.7473Z" fill="white"/>
<path fill-rule="evenodd" clip-rule="evenodd" d="M74.2289 37.0149C76.9786 37.0149 78.8007 34.8277 78.8007 31.4233C78.8007 28.0285 76.9679 25.8306 74.1875 25.8306C72.7568 25.7845 71.4166 26.5286 70.6993 27.7673H70.6579V25.9453H68.4814V40.5243H70.73V35.0982H70.782C71.4688 36.3448 72.8076 37.0892 74.2289 37.0149ZM73.5943 27.7473C75.3432 27.7473 76.4894 29.2054 76.4894 31.4233H76.4894C76.4894 33.6614 75.3432 35.1089 73.5943 35.1089C71.8762 35.1089 70.7206 33.6307 70.7206 31.4233C70.7206 29.2361 71.8762 27.7473 73.5943 27.7473Z" fill="white"/>
<path d="M86.7696 32.7137C86.9363 34.2037 88.3838 35.1821 90.3618 35.1821C92.2572 35.1821 93.6208 34.2037 93.6208 32.8601C93.6208 31.6938 92.7984 30.9955 90.851 30.5169L88.9037 30.0478C86.1446 29.3814 84.8637 28.091 84.8637 25.9972C84.8637 23.4046 87.123 21.6239 90.3311 21.6239C93.5061 21.6239 95.6828 23.4046 95.756 25.9972H93.4861C93.3502 24.4977 92.1106 23.5925 90.2992 23.5925C88.4877 23.5925 87.2482 24.5083 87.2482 25.8412C87.2482 26.9035 88.0399 27.5286 89.9766 28.0071L91.6321 28.4136C94.715 29.1426 95.9959 30.381 95.9959 32.5789C95.9959 35.39 93.7567 37.1506 90.1952 37.1506C86.863 37.1506 84.6131 35.4313 84.4678 32.7136L86.7696 32.7137Z" fill="white"/>
<path d="M100.849 23.3527V25.9452H102.932V27.7259H100.849V33.7653C100.849 34.7035 101.266 35.1407 102.182 35.1407C102.429 35.1364 102.676 35.119 102.922 35.0887V36.8588C102.51 36.9357 102.091 36.9706 101.673 36.9628C99.4546 36.9628 98.5896 36.1297 98.5896 34.0051V27.7259H96.9968V25.9452H98.5896V23.3527H100.849Z" fill="white"/>
<path fill-rule="evenodd" clip-rule="evenodd" d="M109.334 25.8105C106.169 25.8105 104.139 27.9765 104.139 31.4233C104.139 34.8796 106.149 37.0361 109.334 37.0361C112.521 37.0361 114.531 34.8796 114.531 31.4233C114.531 27.9764 112.511 25.8105 109.334 25.8105ZM109.334 27.6634C111.156 27.6634 112.24 29.0589 112.24 31.4233H112.24C112.24 33.7972 111.156 35.1821 109.334 35.1821C107.512 35.1821 106.43 33.7972 106.43 31.4233C106.43 29.0695 107.512 27.6634 109.334 27.6634Z" fill="white"/>
<path d="M116.385 25.9452H118.53V27.8098H118.582C118.881 26.6094 119.981 25.7833 121.217 25.8305C121.476 25.8296 121.734 25.8578 121.987 25.9144V28.0178C121.66 27.9178 121.319 27.8719 120.977 27.8819C120.316 27.8551 119.676 28.1185 119.226 28.6031C118.775 29.0877 118.559 29.7449 118.634 30.4023V36.9001H116.385L116.385 25.9452Z" fill="white"/>
<path fill-rule="evenodd" clip-rule="evenodd" d="M127.638 37.0361C130.116 37.0361 132.052 35.6713 132.355 33.6826L130.22 33.6826C129.81 34.6991 128.781 35.3257 127.69 35.2235C126.872 35.2536 126.08 34.9308 125.516 34.3371C124.952 33.7434 124.671 32.9361 124.743 32.1205V31.9846H132.48V31.2142C132.48 27.8926 130.574 25.8105 127.543 25.8105C124.462 25.8105 122.473 28.0391 122.473 31.4753C122.473 34.9009 124.451 37.0361 127.638 37.0361ZM130.23 30.413L124.753 30.413C124.752 29.6734 125.045 28.9637 125.569 28.4416C126.093 27.9194 126.804 27.6282 127.543 27.6326C128.277 27.6169 128.984 27.9079 129.494 28.4357C130.004 28.9635 130.271 29.6802 130.23 30.413Z" fill="white"/>
<path fill-rule="evenodd" clip-rule="evenodd" d="M48.3174 11.5541C47.6593 10.8592 46.7243 10.496 45.7697 10.5645H43.1618V17.7844H45.7697C47.9203 17.7844 49.1669 16.4585 49.1669 14.1519C49.2873 13.2025 48.9755 12.249 48.3174 11.5541ZM45.6444 16.7633H44.2832V11.5848H45.6444C46.323 11.5471 46.9829 11.8147 47.4437 12.3143C47.9044 12.8139 48.1178 13.4933 48.0254 14.1666C48.1251 14.8428 47.9147 15.5278 47.4528 16.0316C46.9909 16.5353 46.3266 16.8041 45.6444 16.7633Z" fill="white"/>
<path fill-rule="evenodd" clip-rule="evenodd" d="M51.6421 12.6186C50.8085 13.1359 50.3402 14.081 50.4336 15.0576C50.3384 16.0353 50.8063 16.9822 51.6406 17.5007C52.475 18.0191 53.5312 18.0191 54.3656 17.5007C55.1999 16.9822 55.6678 16.0353 55.5726 15.0576C55.666 14.081 55.1977 13.1359 54.3641 12.6186C53.5305 12.1013 52.4757 12.1013 51.6421 12.6186ZM53.0049 13.1859C53.936 13.1859 54.4665 13.8766 54.4665 15.0576H54.4666C54.4666 16.2434 53.936 16.9335 53.0049 16.9335C52.0702 16.9335 51.5444 16.2481 51.5444 15.0576C51.5444 13.8766 52.0702 13.1859 53.0049 13.1859Z" fill="white"/>
<path d="M62.4036 17.7842H61.2882L60.1621 13.7714H60.077L58.9556 17.7842H57.8508L56.3489 12.3357H57.4396L58.4156 16.4933H58.496L59.6161 12.3357H60.6477L61.7679 16.4933H61.853L62.8243 12.3357H63.8996L62.4036 17.7842Z" fill="white"/>
<path d="M65.1628 12.3357H66.1979V13.2012H66.2782C66.5577 12.5639 67.2106 12.1741 67.9042 12.2305C68.4412 12.1901 68.9674 12.3961 69.3343 12.7904C69.7012 13.1846 69.8689 13.7243 69.7901 14.257V17.7841H68.7148V14.527C68.7148 13.6514 68.3343 13.216 67.539 13.216C67.1748 13.199 66.8213 13.342 66.5712 13.6074C66.3212 13.8728 66.1995 14.2341 66.238 14.5967V17.7842H65.1628L65.1628 12.3357Z" fill="white"/>
<path d="M71.5035 10.2087H72.5787V17.7842H71.5035V10.2087Z" fill="white"/>
<path fill-rule="evenodd" clip-rule="evenodd" d="M75.2822 12.6184C74.4485 13.1357 73.9801 14.0809 74.0735 15.0576C73.9784 16.0353 74.4464 16.9822 75.2808 17.5006C76.1151 18.019 77.1714 18.019 78.0058 17.5006C78.8402 16.9822 79.3081 16.0353 79.2131 15.0576C79.3064 14.0809 78.838 13.1357 78.0044 12.6184C77.1707 12.1011 76.1159 12.1011 75.2822 12.6184ZM76.6448 13.1859C77.5759 13.1859 78.1064 13.8765 78.1064 15.0576H78.1064C78.1064 16.2434 77.5759 16.9334 76.6448 16.9335C75.7101 16.9335 75.1843 16.2481 75.1843 15.0576C75.1843 13.8765 75.7101 13.1859 76.6448 13.1859Z" fill="white"/>
<path fill-rule="evenodd" clip-rule="evenodd" d="M82.3716 14.6169C81.0754 14.6973 80.3451 15.2627 80.3451 16.2434C80.3469 16.7085 80.5454 17.151 80.8914 17.4617C81.2374 17.7724 81.6987 17.9222 82.1613 17.8741C82.8211 17.9046 83.4463 17.5778 83.7979 17.0186H83.8829V17.7843H84.918V14.0615C84.918 12.9106 84.1476 12.2306 82.7816 12.2306C81.5456 12.2306 80.6653 12.8309 80.5554 13.7667H81.5965C81.7158 13.3815 82.1317 13.1611 82.732 13.1611C83.467 13.1611 83.8475 13.4861 83.8475 14.0615V14.5318L82.3716 14.6169ZM83.8475 15.3223V15.7779C83.824 16.1251 83.6605 16.448 83.3946 16.6725C83.1286 16.897 82.7829 17.004 82.4366 16.969C81.8517 16.969 81.4263 16.6836 81.4263 16.1932C81.4263 15.7129 81.7666 15.4576 82.5169 15.4074L83.8475 15.3223Z" fill="white"/>
<path fill-rule="evenodd" clip-rule="evenodd" d="M88.5929 12.2453C87.2163 12.2453 86.3313 13.336 86.3313 15.0576C86.3313 16.7834 87.2069 17.8741 88.5929 17.874C89.2957 17.8999 89.9547 17.5338 90.304 16.9234H90.389V17.7842H91.4194V10.2087H90.3441V13.2012H90.2638C89.9391 12.5858 89.288 12.2133 88.5929 12.2453ZM88.8978 16.9087C87.9868 16.9087 87.442 16.2133 87.442 15.0576H87.442C87.442 13.9114 87.9927 13.2113 88.8978 13.2113C89.7982 13.2113 90.3642 13.9268 90.3642 15.0624C90.3642 16.2032 89.8041 16.9087 88.8978 16.9087Z" fill="white"/>
<path fill-rule="evenodd" clip-rule="evenodd" d="M97.0767 12.6186C96.2431 13.1359 95.7748 14.081 95.8683 15.0576C95.7731 16.0353 96.2409 16.9822 97.0753 17.5007C97.9096 18.0191 98.9659 18.0191 99.8002 17.5007C100.635 16.9822 101.102 16.0353 101.007 15.0576C101.101 14.081 100.632 13.1359 99.7988 12.6186C98.9652 12.1013 97.9104 12.1013 97.0767 12.6186ZM98.4395 13.1859C99.3706 13.1859 99.9012 13.8766 99.9012 15.0576C99.9012 16.2434 99.3707 16.9335 98.4395 16.9335C97.5049 16.9335 96.9791 16.2481 96.9791 15.0576C96.9791 13.8766 97.5048 13.1859 98.4395 13.1859Z" fill="white"/>
<path d="M102.45 12.3357H103.485V13.2012H103.565C103.845 12.5639 104.498 12.1741 105.191 12.2305C105.728 12.1901 106.255 12.3961 106.622 12.7904C106.988 13.1846 107.156 13.7243 107.077 14.257V17.7841H106.002V14.527C106.002 13.6514 105.622 13.216 104.826 13.216C104.462 13.199 104.109 13.342 103.858 13.6074C103.608 13.8728 103.487 14.2341 103.525 14.5967V17.7842H102.45V12.3357Z" fill="white"/>
<path d="M113.153 10.9791V12.3605H114.334V13.2662H113.153V16.0679C113.153 16.6386 113.388 16.8885 113.924 16.8885C114.061 16.8881 114.198 16.8798 114.334 16.8637V17.7594C114.141 17.7939 113.945 17.8123 113.749 17.8143C112.553 17.8143 112.077 17.3937 112.077 16.3432V13.2661H111.212V12.3604H112.077V10.9791H113.153Z" fill="white"/>
<path d="M115.803 10.2087H116.868V13.2113H116.953C117.246 12.5684 117.911 12.1781 118.615 12.2353C119.149 12.2062 119.668 12.4168 120.031 12.8096C120.394 13.2024 120.562 13.7365 120.491 14.2665V17.7842H119.415V14.5318C119.415 13.6615 119.01 13.2207 118.25 13.2207C117.876 13.1901 117.507 13.3261 117.243 13.5924C116.978 13.8587 116.845 14.2282 116.878 14.6021V17.7842H115.803L115.803 10.2087Z" fill="white"/>
<path fill-rule="evenodd" clip-rule="evenodd" d="M124.4 17.8894C125.465 18.0049 126.46 17.3409 126.761 16.3131L125.726 16.3131C125.468 16.7758 124.956 17.0368 124.43 16.9736C124.024 16.9781 123.635 16.8113 123.359 16.5141C123.083 16.217 122.945 15.817 122.979 15.4127V15.3525H126.826V14.9773C126.826 13.2663 125.912 12.2306 124.395 12.2306C123.667 12.2243 122.972 12.5345 122.49 13.0806C122.008 13.6268 121.787 14.3552 121.883 15.0771C121.784 15.7971 122.006 16.5243 122.491 17.0659C122.975 17.6075 123.674 17.9086 124.4 17.8894ZM125.731 14.5572H122.979C122.974 14.1815 123.121 13.8197 123.386 13.554C123.652 13.2882 124.014 13.141 124.39 13.1457C124.76 13.1372 125.117 13.2857 125.373 13.5545C125.628 13.8233 125.758 14.1874 125.731 14.5572Z" fill="white"/>
</svg>
