<svg width="26" height="26" fill="none" xmlns="http://www.w3.org/2000/svg"><path d="M13 0C5.831 0 0 5.831 0 13s5.831 13 13 13 13-5.832 13-13S20.169 0 13 0zm0 23.986C6.943 23.986 2.014 19.058 2.014 13 2.014 6.942 6.944 2.014 13 2.014c6.057 0 10.986 4.928 10.986 10.986 0 6.058-4.928 10.986-10.986 10.986z" fill="#BBCFE7"/><path d="M18.035 11.902h-4.028V7.874a1.007 1.007 0 10-2.014 0v4.028H7.965a1.007 1.007 0 100 2.014h4.028v4.028a1.007 1.007 0 102.014 0v-4.028h4.028a1.007 1.007 0 100-2.014z" fill="#BBCFE7"/></svg>