<svg width="48" height="48" viewBox="0 0 48 48" fill="none" xmlns="http://www.w3.org/2000/svg">
<mask id="mask0" mask-type="alpha" maskUnits="userSpaceOnUse" x="0" y="0" width="48" height="48">
<path fill-rule="evenodd" clip-rule="evenodd" d="M16.7347 0H31.2653C36.0846 0 38.4934 0 41.0871 0.82C43.9191 1.8504 46.1496 4.0816 47.1808 6.9128C48 9.5064 48 11.916 48 16.7352V31.2648C48 36.084 48 38.4928 47.1808 41.0872C46.1496 43.9184 43.9191 46.1488 41.0871 47.18C38.4934 48 36.0846 48 31.2653 48H16.7347C11.9162 48 9.50656 48 6.91292 47.18C4.08087 46.1488 1.85043 43.9184 0.819214 41.0872C0 38.4928 0 36.084 0 31.2648V16.7352C0 11.916 0 9.5064 0.819214 6.9128C1.85043 4.0816 4.08087 1.8504 6.91292 0.82C9.50656 0 11.9162 0 16.7347 0" fill="white"/>
</mask>
<g mask="url(#mask0)">
<rect width="48" height="48" fill="url(#paint0_linear)"/>
<mask id="mask1" mask-type="alpha" maskUnits="userSpaceOnUse" x="0" y="0" width="48" height="48">
<rect width="48" height="48" fill="white"/>
</mask>
<g mask="url(#mask1)">
</g>
<g filter="url(#filter0_f)">
<path fill-rule="evenodd" clip-rule="evenodd" d="M19.9904 15.5376C19.9714 15.537 19.9522 15.5367 19.9328 15.5367H28.0609C28.0428 15.5367 28.0248 15.537 28.007 15.5376C28.5601 15.5531 28.8526 15.785 29.055 16.1721L38.1305 33.5364C38.193 33.656 38.2256 33.7889 38.2256 33.9238C38.2256 34.3864 37.85 34.7708 37.3866 34.7708H31.6465C31.1776 34.7708 30.7476 34.5012 30.5307 34.0862L23.9991 21.673L20.624 28.0875H23.8931C24.361 28.0875 24.7903 28.3171 25.0077 28.7307L27.5332 33.5346C27.7485 33.9442 27.5905 34.4506 27.1801 34.6655C27.0599 34.7285 26.9261 34.7813 26.7902 34.7813H10.5718C10.1084 34.7813 9.73276 34.3864 9.73276 33.9238C9.73276 33.7889 9.7654 33.656 9.82792 33.5364L12.3375 28.7348C12.3833 28.6471 12.4386 28.5676 12.5018 28.4968L18.9433 16.1721C19.1456 15.7852 19.4379 15.5534 19.9904 15.5376V15.5376Z" fill="url(#paint1_linear)" fill-opacity="0.2"/>
</g>
<g filter="url(#filter1_f)">
<path fill-rule="evenodd" clip-rule="evenodd" d="M24.0469 34.3594C30.2342 34.3594 35.25 29.3436 35.25 23.1562C35.25 16.9689 30.2342 11.9531 24.0469 11.9531C17.8596 11.9531 12.8438 16.9689 12.8438 23.1562C12.8438 29.3436 17.8596 34.3594 24.0469 34.3594Z" fill="url(#paint2_radial)"/>
</g>
<path fill-rule="evenodd" clip-rule="evenodd" d="M21.1459 12.6562C20.862 12.0016 20.0555 11.7656 19.3585 11.7656C18.6616 11.7656 18.3012 12.0414 18.0546 12.5131L10.1951 27.5508L19.3378 27.8504L24.0522 18.8906L21.1459 12.6562Z" fill="url(#paint3_linear)"/>
<path fill-rule="evenodd" clip-rule="evenodd" d="M20.0156 26.5312L16.3125 33.5885C16.0573 34.0768 15.5105 34.4062 14.9588 34.4062H8.20581C7.66064 34.4062 7.21869 33.9417 7.21869 33.3975C7.21869 33.2388 7.2571 33.0824 7.33064 32.9417L10.2831 27.2927C10.5383 26.8045 11.0441 26.5313 11.5957 26.5312H20.0156Z" fill="url(#paint4_linear)"/>
<path fill-rule="evenodd" clip-rule="evenodd" d="M14.9588 34.4062C15.5105 34.4062 16.0164 34.0768 16.2716 33.5885L19.9779 26.5313H23.8779C24.4284 26.5312 24.9335 26.8013 25.1893 27.2879L28.1604 32.9396C28.4137 33.4215 28.2278 34.0172 27.745 34.2701C27.6035 34.3442 27.4461 34.4062 27.2863 34.4062H14.9588Z" fill="url(#paint5_linear)"/>
<path fill-rule="evenodd" clip-rule="evenodd" d="M26.8594 12.6562C27.1433 12.0016 27.9498 11.7656 28.6468 11.7656C29.3437 11.7656 29.7041 12.0414 29.9507 12.5131L40.6277 32.9417C40.7013 33.0824 40.7397 33.2388 40.7397 33.3975C40.7397 33.9417 40.2977 34.3939 39.7526 34.3939H32.9996C32.4479 34.3939 31.942 34.0768 31.6868 33.5885L23.9531 18.8906L26.8594 12.6562Z" fill="url(#paint6_linear)"/>
<path fill-rule="evenodd" clip-rule="evenodd" d="M28.7812 11.7656C28.081 11.7656 27.6109 12.1184 27.2812 12.75L24 18.9844L20.7188 12.75C20.426 12.0994 19.9359 11.7656 19.2188 11.7656H28.7812Z" fill="url(#paint7_linear)"/>
</g>
<defs>
<filter id="filter0_f" x="5.65533" y="11.4593" width="36.6477" height="27.3994" filterUnits="userSpaceOnUse" color-interpolation-filters="sRGB">
<feFlood flood-opacity="0" result="BackgroundImageFix"/>
<feBlend mode="normal" in="SourceGraphic" in2="BackgroundImageFix" result="shape"/>
<feGaussianBlur stdDeviation="2.03871" result="effect1_foregroundBlur"/>
</filter>
<filter id="filter1_f" x="6.47278" y="5.58215" width="35.1482" height="35.1482" filterUnits="userSpaceOnUse" color-interpolation-filters="sRGB">
<feFlood flood-opacity="0" result="BackgroundImageFix"/>
<feBlend mode="normal" in="SourceGraphic" in2="BackgroundImageFix" result="shape"/>
<feGaussianBlur stdDeviation="3.18549" result="effect1_foregroundBlur"/>
</filter>
<linearGradient id="paint0_linear" x1="-24" y1="24" x2="24" y2="72" gradientUnits="userSpaceOnUse">
<stop stop-color="white"/>
<stop offset="1" stop-color="#F5FAFF"/>
</linearGradient>
<linearGradient id="paint1_linear" x1="35.6533" y1="34.7813" x2="35.6533" y2="19.0115" gradientUnits="userSpaceOnUse">
<stop stop-color="#0D69E4"/>
<stop offset="1" stop-color="#0756C0" stop-opacity="0.01"/>
</linearGradient>
<radialGradient id="paint2_radial" cx="0" cy="0" r="1" gradientUnits="userSpaceOnUse" gradientTransform="translate(24.0469 23.1562) rotate(90) scale(11.2031)">
<stop stop-color="white"/>
<stop offset="1" stop-color="white" stop-opacity="0.5"/>
</radialGradient>
<linearGradient id="paint3_linear" x1="10.3599" y1="27.8504" x2="10.3599" y2="12.1481" gradientUnits="userSpaceOnUse">
<stop stop-color="#0D69E4"/>
<stop offset="1" stop-color="#0756C0"/>
</linearGradient>
<linearGradient id="paint4_linear" x1="0.82022" y1="30.4688" x2="7.85025" y2="41.8926" gradientUnits="userSpaceOnUse">
<stop stop-color="#32BEFF"/>
<stop offset="1" stop-color="#6ED1FF"/>
</linearGradient>
<linearGradient id="paint5_linear" x1="34.9311" y1="30.4688" x2="28.0299" y2="18.8004" gradientUnits="userSpaceOnUse">
<stop stop-color="#43B7FF"/>
<stop offset="1" stop-color="#009DFF"/>
</linearGradient>
<linearGradient id="paint6_linear" x1="49.133" y1="23.0798" x2="27.4775" y2="7.0148" gradientUnits="userSpaceOnUse">
<stop stop-color="#43B7FF"/>
<stop offset="1" stop-color="#009DFF"/>
</linearGradient>
<linearGradient id="paint7_linear" x1="14.4375" y1="15.375" x2="21.38" y2="24.5716" gradientUnits="userSpaceOnUse">
<stop stop-color="#32BEFF"/>
<stop offset="1" stop-color="#6ED1FF"/>
</linearGradient>
</defs>
</svg>
