<?xml version="1.0" encoding="UTF-8"?>
<svg width="24px" height="24px" viewBox="0 0 24 24" version="1.1" xmlns="http://www.w3.org/2000/svg" xmlns:xlink="http://www.w3.org/1999/xlink">
    <!-- Generator: Sketch 57.1 (83088) - https://sketch.com -->
    <title>HP / Icons / icon-youtube</title>
    <desc>Created with Sketch.</desc>
    <defs>
        <path d="M10,12 L16,8.5 L10,5 L10,12 L10,12 Z M23.472,2.635 C23.628,3.20571429 23.736,3.97071429 23.808,4.94214286 C23.892,5.91357143 23.928,6.75142857 23.928,7.48 L24,8.5 C24,11.1592857 23.808,13.1142857 23.472,14.365 C23.172,15.4578571 22.476,16.1621429 21.396,16.4657143 C20.832,16.6235714 19.8,16.7328571 18.216,16.8057143 C16.656,16.8907143 15.228,16.9271429 13.908,16.9271429 L12,17 C6.972,17 3.84,16.8057143 2.604,16.4657143 C1.524,16.1621429 0.828,15.4578571 0.528,14.365 C0.372,13.7942857 0.264,13.0292857 0.192,12.0578571 C0.108,11.0864286 0.072,10.2485714 0.072,9.52 L0,8.5 C0,5.84071429 0.192,3.88571429 0.528,2.635 C0.828,1.54214286 1.524,0.837857143 2.604,0.534285714 C3.168,0.376428571 4.2,0.267142857 5.784,0.194285714 C7.344,0.109285714 8.772,0.0728571429 10.092,0.0728571429 L12,0 C17.028,0 20.16,0.194285714 21.396,0.534285714 C22.476,0.837857143 23.172,1.54214286 23.472,2.635 Z" id="path-1"></path>
    </defs>
    <g id="HP-/-Icons-/-icon-youtube" stroke="none" stroke-width="1" fill="none" fill-rule="evenodd">
        <g id="icon" transform="translate(0.000000, 4.000000)">
            <mask id="mask-2" fill="white">
                <use xlink:href="#path-1"></use>
            </mask>
            <use id="Shape" fill="#FFFFFF" fill-rule="nonzero" xlink:href="#path-1"></use>
            <g id="zc-/-Style-/-Blue" mask="url(#mask-2)" fill="#ffffff">
                <g transform="translate(0.000000, -4.000000)" id="bg">
                    <polygon points="0 0 24 0 24 24 0 24"></polygon>
                </g>
            </g>
        </g>
    </g>
</svg>