<svg xmlns="http://www.w3.org/2000/svg" xmlns:xlink="http://www.w3.org/1999/xlink" width="24" height="24" viewBox="0 0 24 24">
    <defs>
        <path id="a" d="M24 2.367a9.647 9.647 0 0 1-2.828.795A5.045 5.045 0 0 0 23.337.37a9.708 9.708 0 0 1-3.127 1.225A4.861 4.861 0 0 0 16.616 0c-2.72 0-4.924 2.26-4.924 5.049 0 .396.044.781.128 1.15C7.727 5.99 4.1 3.98 1.67.925a5.122 5.122 0 0 0-.666 2.539c0 1.751.87 3.296 2.19 4.202a4.808 4.808 0 0 1-2.23-.632v.064c0 2.446 1.697 4.487 3.95 4.95a4.819 4.819 0 0 1-2.224.087c.627 2.006 2.445 3.466 4.6 3.507A9.724 9.724 0 0 1 0 17.73 13.686 13.686 0 0 0 7.548 20c9.057 0 14.01-7.694 14.01-14.366 0-.219-.005-.436-.015-.653A10.144 10.144 0 0 0 24 2.367z"/>
    </defs>
    <g fill="none" fill-rule="evenodd" transform="translate(0 3)">
        <use fill="#8dcbff" xlink:href="#a"/>
    </g>
</svg>
