<svg width="45" height="45" viewBox="0 0 45 45" fill="none" xmlns="http://www.w3.org/2000/svg">
<circle cx="22.5" cy="22.5" r="22.5" fill="#E9F2FF"/>
<path d="M29.1408 35.9993H15.8599C12.6291 35.9993 10.0007 33.3709 10.0007 30.1401V24.2809C9.96193 22.0186 11.6467 19.9145 13.858 19.4959V16.8592C13.858 13.6284 16.4864 11 19.7172 11H29.1408C32.3716 11 35 13.6284 35 16.8592V30.1401C35 33.3709 32.3716 35.9993 29.1408 35.9993ZM13.858 21.5177C12.7371 21.9161 11.9537 22.9883 11.9537 24.2809V30.1401C11.9537 32.2939 13.706 34.0462 15.8599 34.0462H29.1408C31.2946 34.0462 33.0469 32.2939 33.0469 30.1401V16.8592C33.0469 14.7053 31.2946 12.953 29.1408 12.953H19.7172C17.5633 12.953 15.811 14.7053 15.811 16.8592V30.3354C15.7595 31.6311 13.9091 31.6301 13.858 30.3354V21.5177ZM31.0939 17.2987C31.0939 16.7593 30.6567 16.3221 30.1173 16.3221H18.7407C17.445 16.3737 17.446 18.2241 18.7407 18.2752H30.1173C30.6567 18.2752 31.0939 17.838 31.0939 17.2987ZM31.1427 26.4293C31.1427 25.8899 30.7055 25.4527 30.1661 25.4527H26.3576C25.062 25.5043 25.063 27.3547 26.3576 27.4058H30.1661C30.7055 27.4058 31.1427 26.9686 31.1427 26.4293ZM23.4769 26.4293C23.4769 25.8899 23.0397 25.4527 22.5003 25.4527H18.7407C17.445 25.5043 17.446 27.3547 18.7407 27.4058H22.5003C23.0397 27.4058 23.4769 26.9686 23.4769 26.4293ZM23.4769 30.3354C23.4769 29.7961 23.0397 29.3589 22.5003 29.3589H18.7407C17.445 29.4105 17.446 31.2608 18.7407 31.312H22.5003C23.0397 31.312 23.4769 30.8748 23.4769 30.3354ZM29.1408 30.3354C29.1408 29.7961 28.7036 29.3589 28.1642 29.3589H26.3576C25.062 29.4105 25.063 31.2608 26.3576 31.312H28.1642C28.7036 31.312 29.1408 30.8748 29.1408 30.3354ZM30.1661 23.4997H23.0862C21.7906 23.4481 21.7916 21.5977 23.0862 21.5466H30.1661C31.4619 21.5982 31.4608 23.4485 30.1661 23.4997ZM17.7641 22.4255C17.7641 23.0996 18.3106 23.6462 18.9848 23.6462C20.604 23.5818 20.6035 21.2689 18.9848 21.2048C18.3106 21.2048 17.7641 21.7513 17.7641 22.4255Z" fill="#068DF8"/>
</svg>
