<svg width="48" height="48" xmlns="http://www.w3.org/2000/svg" fill="none">

 <g>
  <title>Layer 1</title>
  <ellipse stroke="null" ry="23" rx="23" id="svg_12" cy="24.25" cx="24" fill="#ffffff"/>
  <path id="svg_2" fill="#E01E5A" d="m16.5355,27.3969c0,1.4887 -1.2162,2.7048 -2.7049,2.7048c-1.4887,0 -2.7048,-1.2161 -2.7048,-2.7048c0,-1.4888 1.2161,-2.7049 2.7048,-2.7049l2.7049,0l0,2.7049z"/>
  <path id="svg_3" fill="#E01E5A" d="m17.8984,27.3969c0,-1.4888 1.2161,-2.7049 2.7048,-2.7049c1.4887,0 2.7049,1.2161 2.7049,2.7049l0,6.7725c0,1.4887 -1.2162,2.7049 -2.7049,2.7049c-1.4887,0 -2.7048,-1.2162 -2.7048,-2.7049l0,-6.7725z"/>
  <path id="svg_4" fill="#36C5F0" d="m20.6032,16.5355c-1.4887,0 -2.7048,-1.2161 -2.7048,-2.7048c0,-1.4887 1.2161,-2.7048 2.7048,-2.7048c1.4887,0 2.7049,1.2161 2.7049,2.7048l0,2.7048l-2.7049,0z"/>
  <path id="svg_5" fill="#36C5F0" d="m20.6032,17.8984c1.4887,0 2.7049,1.2162 2.7049,2.7049c0,1.4887 -1.2162,2.7048 -2.7049,2.7048l-6.7726,0c-1.4887,0 -2.7048,-1.2161 -2.7048,-2.7048c0,-1.4887 1.2161,-2.7049 2.7048,-2.7049l6.7726,0z"/>
  <path id="svg_6" fill="#2EB67D" d="m31.4645,20.6033c0,-1.4887 1.2161,-2.7049 2.7048,-2.7049c1.4888,0 2.7049,1.2162 2.7049,2.7049c0,1.4887 -1.2161,2.7048 -2.7049,2.7048l-2.7048,0l0,-2.7048z"/>
  <path id="svg_7" fill="#2EB67D" d="m30.1016,20.6033c0,1.4887 -1.2161,2.7048 -2.7048,2.7048c-1.4887,0 -2.7049,-1.2161 -2.7049,-2.7048l0,-6.7726c0,-1.4887 1.2162,-2.7048 2.7049,-2.7048c1.4887,0 2.7048,1.2161 2.7048,2.7048l0,6.7726z"/>
  <path id="svg_8" fill="#ECB22E" d="m27.3968,31.4646c1.4887,0 2.7048,1.2161 2.7048,2.7048c0,1.4887 -1.2161,2.7049 -2.7048,2.7049c-1.4887,0 -2.7049,-1.2162 -2.7049,-2.7049l0,-2.7048l2.7049,0z"/>
  <path id="svg_9" fill="#ECB22E" d="m27.3968,30.1017c-1.4887,0 -2.7049,-1.2161 -2.7049,-2.7048c0,-1.4888 1.2162,-2.7049 2.7049,-2.7049l6.7725,0c1.4888,0 2.7049,1.2161 2.7049,2.7049c0,1.4887 -1.2161,2.7048 -2.7049,2.7048l-6.7725,0z"/>
 </g>
</svg>