<svg width="45" height="45" viewBox="0 0 45 45" fill="none" xmlns="http://www.w3.org/2000/svg">
<path d="M22.5 45C34.9264 45 45 34.9264 45 22.5C45 10.0736 34.9264 0 22.5 0C10.0736 0 0 10.0736 0 22.5C0 34.9264 10.0736 45 22.5 45Z" fill="white"/>
<path fill-rule="evenodd" clip-rule="evenodd" d="M35 14.4056C34.0788 14.8122 33.0904 15.0882 32.0536 15.2112C33.1128 14.5772 33.9259 13.5702 34.3063 12.373C33.3142 12.9623 32.2177 13.3874 31.0503 13.6187C30.1141 12.6229 28.7826 12 27.3057 12C24.4749 12 22.1774 14.2975 22.1774 17.1283C22.1774 17.5311 22.2221 17.9227 22.3117 18.2957C18.0486 18.0831 14.2705 16.0392 11.7418 12.9361C11.3017 13.6933 11.048 14.5735 11.048 15.5134C11.048 17.2924 11.9543 18.8626 13.3306 19.7801C12.4914 19.754 11.7007 19.5228 11.007 19.1386C11.007 19.161 11.007 19.1796 11.007 19.202C11.007 21.686 12.7749 23.7597 15.1208 24.2296C14.6919 24.3452 14.2369 24.4086 13.7707 24.4086C13.4388 24.4086 13.118 24.3751 12.8047 24.3154C13.4574 26.3518 15.3521 27.8362 17.5936 27.8772C15.8369 29.2535 13.629 30.074 11.2233 30.074C10.8093 30.074 10.4028 30.0479 10 30.0031C12.2676 31.4577 14.9642 32.3081 17.8622 32.3081C27.2945 32.3081 32.4526 24.4944 32.4526 17.7176C32.4526 17.4938 32.4489 17.2738 32.4377 17.0537C33.441 16.3302 34.31 15.4276 34.9963 14.3982L35 14.4056Z" fill="#41ABE1"/>
</svg>
