<svg width="45" height="45" xmlns="http://www.w3.org/2000/svg" xmlns:xlink="http://www.w3.org/1999/xlink" version="1.1">
 <!-- Generator: Sketch 57.1 (83088) - https://sketch.com -->
 <title>HP / Icons / icon-youtube</title>
 <desc>Created with Sketch.</desc>
 <defs>
  <path id="path-1" d="m10,12l6,-3.5l-6,-3.5l0,7l0,0zm13.472,-9.365c0.156,0.57071 0.264,1.33571 0.336,2.30714c0.084,0.97143 0.12,1.80929 0.12,2.53786l0.072,1.02c0,2.65929 -0.192,4.61429 -0.528,5.865c-0.3,1.09286 -0.996,1.79714 -2.076,2.10071c-0.564,0.15786 -1.596,0.26715 -3.18,0.34c-1.56,0.085 -2.988,0.12143 -4.308,0.12143l-1.908,0.07286c-5.028,0 -8.16,-0.19429 -9.396,-0.53429c-1.08,-0.30357 -1.776,-1.00785 -2.076,-2.10071c-0.156,-0.57071 -0.264,-1.33571 -0.336,-2.30714c-0.084,-0.97143 -0.12,-1.80929 -0.12,-2.53786l-0.072,-1.02c0,-2.65929 0.192,-4.61429 0.528,-5.865c0.3,-1.09286 0.996,-1.79714 2.076,-2.10071c0.564,-0.15786 1.596,-0.26715 3.18,-0.34c1.56,-0.085 2.988,-0.12143 4.308,-0.12143l1.908,-0.07286c5.028,0 8.16,0.19429 9.396,0.53429c1.08,0.30357 1.776,1.00785 2.076,2.10071z"/>
 </defs>
 <g>
  <title>Layer 1</title>
  <ellipse stroke="#ffffff" ry="22.5" rx="22" id="svg_3" cy="22.5" cx="22.5" fill="#ffffff"/>
  <g stroke="null" fill-rule="evenodd" fill="none" id="HP-/-Icons-/-icon-youtube">
   <g stroke="null" id="icon">
    <mask stroke="null" fill="#000000" id="mask-2">
     <use fill="#000000" stroke="null" id="svg_1" xlink:href="#path-1"/>
    </mask>
    <use transform="matrix(1.25 0 0 1.25 -2.25 -2.5)" stroke="null" x="8.2" y="12.4" xlink:href="#path-1" fill-rule="nonzero" fill="#000000" id="Shape"/>
    <g stroke="null" fill="#000" mask="url(#mask-2)" id="zc-/-Style-/-Blue">
     <g stroke="null" id="bg">
      <polygon fill="#000000" stroke="null" id="svg_2" points="8,8 38,8 38,38 8,38 "/>
     </g>
    </g>
   </g>
  </g>
  <ellipse id="svg_5" cy="35.75" cx="18.5" stroke="#000" fill="#000000"/>
 </g>
</svg>