<svg width="80" height="80" viewBox="0 0 80 80" fill="none" xmlns="http://www.w3.org/2000/svg">
<rect width="80" height="80" rx="5" fill="#F6F6F6"/>
<path d="M25.5768 48.4232L17 39.8464L44.8487 12H62L25.5768 48.4232ZM62 37.6966H44.8487L38.424 44.1213L47.0007 52.6981" fill="#42A5F5" fill-opacity="0.8"/>
<path d="M38.424 61.2726L44.8487 67.6973H62L47.0008 52.6981" fill="#0D47A1"/>
<path d="M29.8674 52.7026L38.4307 44.1371L46.994 52.7003L38.4307 61.2659L29.8674 52.7026Z" fill="#42A5F5"/>
<path d="M38.4307 61.2659L46.994 52.7026L48.1894 53.8979L39.6261 62.4612L38.4307 61.2659Z" fill="url(#paint0_linear)"/>
<path d="M38.424 61.2726L51.1496 56.8762L47.0007 52.6958" fill="url(#paint1_linear)"/>
<defs>
<linearGradient id="paint0_linear" x1="42.714" y1="56.9827" x2="43.9094" y2="58.1781" gradientUnits="userSpaceOnUse">
<stop offset="0.2" stop-opacity="0.15"/>
<stop offset="0.85" stop-color="#616161" stop-opacity="0.01"/>
</linearGradient>
<linearGradient id="paint1_linear" x1="38.427" y1="56.9845" x2="51.1524" y2="56.9845" gradientUnits="userSpaceOnUse">
<stop offset="0.2" stop-opacity="0.55"/>
<stop offset="0.85" stop-color="#616161" stop-opacity="0.01"/>
</linearGradient>
</defs>
</svg>
